<?xml version="1.0" encoding="utf-8"?><svg xmlns="http://www.w3.org/2000/svg" xmlns:xlink="http://www.w3.org/1999/xlink"><symbol viewBox="0 0 100 33" id="logo" xmlns="http://www.w3.org/2000/svg"><g clip-path="url(#aclip0)"><path d="M9.719 17.438c-2.007 2.549-5.98 2.616-8.223.333-2.13-2.146-1.869-5.566.045-7.692.927-2.819 5.005-2.467 7.154-.748 2.49 2.007 3.054 5.524 1.024 8.107zM13.159 9.436c-1.974 0-2.785-1.23-2.953-2.725-.635-1.869.217-4.055 2.306-4.6a3.633 3.633 0 014.485 3.015 3.846 3.846 0 01-3.838 4.31z" fill="#FFDCDC"/><path d="M19.604 31.123l.123-.232c-.826-.527-1.648-1.061-2.47-1.592a12.116 12.116 0 01-1.914-1.869c-.77-.848-1.544-1.7-2.317-2.545-.068-.07-.154-.153-.161-.22a10.374 10.374 0 01-1.869-2.736 22.763 22.763 0 01-1.338-2.422c-.041-.09.052-.247.082-.374.166-.038.326-.1.475-.183.489-.428.845-.987 1.028-1.611.788-2.018 1.465-4.063 1.39-6.272a1.5 1.5 0 00-.1-.344 1.266 1.266 0 00-.289.21c-.523.691-1.054 1.379-1.547 2.093a8.817 8.817 0 00-1.495 3.393c-.112.58-.127 1.174-.183 1.76a1.209 1.209 0 01-.09-.149c-.314-.747-.617-1.495-.942-2.242a.426.426 0 01.112-.527c.377-.353.719-.741 1.02-1.159a14.44 14.44 0 001.746-4.32c.124-.548.205-1.104.243-1.664 0-.172-.12-.355-.183-.534a1.633 1.633 0 00-.486.284c-.403.486-.788.99-1.155 1.495a8.125 8.125 0 00-1.547 3.207c-.101.568-.146 1.147-.22 1.723h-.038l-.684-2.706.194.287c.077-.155.166-.303.266-.444.444-.557 1.016-1.047 1.323-1.671.45-.966.826-1.966 1.121-2.99.115-.479.175-.97.18-1.462 0-.123-.086-.25-.135-.373-.1.04-.243.056-.295.13-.73 1.006-1.495 1.989-2.15 3.035-.285.56-.518 1.146-.695 1.75a1.6 1.6 0 01.056-1.092 19.436 19.436 0 001.223-4.829c.113-1.166.164-2.338.153-3.51A1.454 1.454 0 007.909 0c-.135.067-.314.105-.404.213a7.67 7.67 0 00-1.61 3.054c-.404 1.749-.225 3.498.108 5.232.153.796.317 1.589.478 2.392-.796-.302-1.495-.609-2.213-.833a8.294 8.294 0 00-3.83-.116 1.38 1.38 0 00-.438.243c.079.16.181.307.303.437a4.908 4.908 0 003.05 1.1 9.053 9.053 0 002.616-.315c.463-.13.523-.078.628.374.127.55.254 1.099.396 1.644.101.404.224.808.348 1.26-.109-.06-.169-.086-.225-.123a4.186 4.186 0 00-2.934-.748c-1.084.176-2.149.471-3.221.722-.173.038-.34.095-.501.168a.269.269 0 000 .512c.531.269 1.087.488 1.66.654.69.122 1.388.2 2.089.235a6.477 6.477 0 003.363-.579l1.271 3.027a8.032 8.032 0 00-4.362-.373c-1.12.243-2.242.635-3.334.979-.138.045-.246.187-.373.28.116.124.209.307.351.374.686.307 1.396.557 2.123.748.694.105 1.395.153 2.097.145a7.717 7.717 0 003.528-.833c.149-.075.294-.157.434-.247l2.478 4.19c-.374-.146-.811-.336-1.252-.47-1.87-.576-3.816-.576-5.753-.375-.71.068-1.412.22-2.115.348-.303.056-.374.21-.183.396a6.764 6.764 0 002.126 1.525c1.352.55 2.798.83 4.258.826a5.8 5.8 0 003.517-.938.504.504 0 01.482.052c.81.894 1.592 1.813 2.422 2.77l-.658-.217a9.283 9.283 0 00-2.616-.53 11.41 11.41 0 00-4.893.986c-.422.172-.863.307-1.29.464a2.082 2.082 0 00-.283.153c.074.108.127.276.224.314.796.284 1.58.676 2.403.777 1.783.22 3.585.46 5.39.116.923-.172 1.85-.329 2.598-.972a1.34 1.34 0 01.179-.112c.134.153.282.295.44.423.816.553 1.63 1.12 2.46 1.633l.322.198a.12.12 0 00.04-.06zM9.512 6.047c-.374 1.72-.747 3.458-2.138 4.729A24.45 24.45 0 019.51 6.047h.003zm-.418-.127c-.7 1.608-1.495 3.41-2.243 5.188C6.832 8.97 7.927 7.322 9.09 5.92h.004zM1.129 10.16a7.745 7.745 0 014.111.564l-4.111-.47v-.094zm-.46.325l5.042.613c-1.196.718-4.238.306-5.042-.613zM6.186 7.89c-.67-2.616 0-6.002 1.465-7.352C6.705 2.89 6.56 5.393 6.186 7.89zM7.68 1.27c.336.913-.408 5.465-1.166 6.874.205-2.306.355-4.623 1.158-6.873h.008zM6.264 14.447c.292.135.56.31.841.467l-.037.13a33.92 33.92 0 00-5.779-.28c1.638-.452 3.263-1.106 4.975-.317zm-5.124.747c.62-.25 4.986-.138 6.07.157-1.177.722-5.15.59-6.07-.16v.003zm6.96-.373a36.46 36.46 0 012.706-6.104c-.505 2.194-1.047 4.388-2.707 6.089v.015zm2.616-6.836l-2.807 6.092c-.09-2.49 1.42-4.261 2.807-6.107v.015zM1.159 19.57c2.324-1.218 6.032-1.656 7.744-.52a3.094 3.094 0 01-.374-.026c-1.304-.239-2.594-.048-3.88.146-.964.146-1.928.288-2.892.419a3.852 3.852 0 01-.587-.037l-.011.018zm.938.24c2.306-.28 4.586-.916 6.96-.486-1.006.975-4.751 1.607-6.96.485zm10.24-7.98a1.84 1.84 0 010 .35c-.201.999-.373 2.012-.634 2.991-.268.91-.598 1.8-.987 2.665-.21.35-.46.674-.748.964-.078.101-.15.206-.224.31-.026-.15-.108-.317-.064-.44a483.22 483.22 0 011.82-4.916c.24-.646.49-1.289.748-1.936l.09.012zm-.62.43c-.766 2.01-1.528 4.025-2.317 6.095-.18-2.433.852-4.346 2.317-6.096zm-.22 11.84l-7.838-.553c1.48-.557 6.036-.61 7.838.553zm-1.121 1.495a9.994 9.994 0 01-6.388-1.054 5.963 5.963 0 01-.848-.661l.04-.083c3.006.23 6.016.461 9.03.696.064 0 .12.097.218.183a3.914 3.914 0 01-2.045.916l-.007.003zm5.176 2.81c-2.75.188-5.505.08-8.335.076 2.811-1.23 5.566-1.372 8.335-.075zm-.205.79a10.419 10.419 0 01-4.142.631c-.598-.04-1.192-.104-1.79-.108a7.557 7.557 0 01-3.057-.77c3.203-.318 6.417.067 9.62-.28 0 .04.019.078.027.115-.203.167-.424.31-.658.426v-.014zM14.368 7.637c-.303.766-.882 1.076-1.533.818a1.248 1.248 0 01-.773-1.566c.235-.613 1.121-1.054 1.712-.83a1.248 1.248 0 01.594 1.578zm-.292-.113a.976.976 0 00-.456-1.184 1.177 1.177 0 00-1.311.624.94.94 0 00.598 1.215c.493.194.938-.06 1.17-.655z" fill="#AE7C78"/><path d="M4.218 7.061a.815.815 0 01.55 1.02 1.013 1.013 0 01-1.316.599.796.796 0 01-.374-1.062.856.856 0 011.14-.557zm-.112.262a.598.598 0 00-.8.374.58.58 0 00.243.747.777.777 0 00.957-.43.557.557 0 00-.404-.676l.004-.015zM12.07 4.53c.187-.43.47-.616.747-.493a.781.781 0 01.374.946.658.658 0 01-.852.254.478.478 0 01-.27-.706zM3.73 5.036a.542.542 0 01.281.747.635.635 0 01-.748.355c-.25-.1-.332-.404-.201-.729.13-.325.396-.486.669-.373zM1 6.329c.13-.374.344-.374.5-.27.158.106.18.281.27.427a1.41 1.41 0 01-.546.176c-.1-.012-.175-.258-.224-.333zM14.14 4.878c-.072-.254-.176-.437-.128-.504.135-.148.291-.274.464-.374.077.184.12.38.127.58 0 .1-.232.156-.463.298zM20.414 16.436c3.057.408 3.943 1.918 3.943 3.484 0 2.197-1.742 3.737-4.638 3.737-.576 0-1.738-.06-3.323-.06-.905 0-1.869.023-2.396.06v-.373c1.312-.057 1.566-.255 1.566-1.66v-9.59c0-1.406-.254-1.604-1.566-1.66V10c.538.037 1.495.056 2.358.056 1.219 0 2.452-.037 2.916-.037 2.706-.015 4.089 1.24 4.089 3.03 0 1.369-.774 2.7-2.934 3.365l-.015.022zm-3.054-4.403v4.38h1.3c2.273 0 2.834-1.494 2.834-3.165 0-1.895-.774-2.874-2.71-2.874-1.17 0-1.424.329-1.424 1.66zm5.065 7.8c0-1.962-.99-3.101-3.443-3.101H17.36v4.884c0 1.35.254 1.604 1.45 1.604 2.53 0 3.615-1.2 3.615-3.386zM34.772 18.255c0 3.708-1.932 5.233-4.384 5.233-2.452 0-4.388-1.54-4.388-5.233C26 14.562 27.932 13 30.388 13s4.384 1.54 4.384 5.255zm-6.896 0c0 3.454 1.047 4.859 2.512 4.859s2.508-1.394 2.508-4.859-1.04-4.859-2.508-4.859c-1.469 0-2.512 1.398-2.512 4.86zM42.459 14.214v.374h-2.86v7.475c0 1.215.464 1.641 1.238 1.641.773 0 1.337-.557 1.745-2.067l.374.097c-.266 1.495-.946 2.67-2.508 2.67-.89 0-1.41-.218-1.832-.644-.564-.575-.747-1.33-.747-2.706V14.6H36v-.373h1.869v-2.953c.589 0 1.174-.092 1.734-.273v3.226l2.856-.012zM49.399 13.726c.613.62.77 1.338.77 2.706v5.371c0 .624.153.916.594.916.33-.018.64-.16.87-.396l.218.332c-.479.449-1.109.7-1.764.707-1.35 0-1.66-.811-1.66-1.716a3.364 3.364 0 01-2.971 1.716c-1.294 0-2.456-.65-2.456-2.16 0-1.51 1.181-2.21 3.113-3.02 1.294-.535 2.314-.867 2.314-1.641v-1.207c0-1.623-.792-1.944-1.794-1.944-.662 0-1.473.13-1.914.688a1.193 1.193 0 01.905 1.18 1.013 1.013 0 01-.692 1.001c-.138.046-.285.062-.43.046-.661 0-1.046-.5-1.046-1.2 0-.564.374-1.009.904-1.375a4.986 4.986 0 012.71-.729c1.073 0 1.884.284 2.329.725zm-.972 3.592c-.21.314-.635.508-1.85 1.121-.849.408-1.869.965-1.869 2.456 0 1.159.658 1.697 1.547 1.697.774 0 1.525-.407 2.18-1.461l-.008-3.813zM61.544 13.725c.482.527.67 1.215.67 2.538v5.162c0 1.076.407 1.386 1.472 1.386v.408c-.441 0-1.473-.079-2.321-.079-.849 0-1.753.06-2.16.079v-.408c.926 0 1.274-.31 1.274-1.386V15.84c0-1.2-.168-2.243-1.566-2.243-1.622 0-2.706 1.547-2.706 3.52v4.307c0 1.076.347 1.386 1.282 1.386v.408c-.404 0-1.32-.079-2.168-.079-.848 0-1.869.06-2.321.079v-.408c1.065 0 1.469-.31 1.469-1.386v-6.048c0-1.159-.348-1.708-1.469-1.708v-.404c.404.038.811.056 1.196.056.68.02 1.359-.07 2.01-.265v2.276C56.888 13.594 58.177 13 59.5 13c.979 0 1.603.265 2.044.725zM67.207 21.988c0 1.077.404 1.387 1.469 1.387v.407c-.441 0-1.45-.078-2.34-.078-.89 0-1.895.06-2.336.078v-.407c1.065 0 1.469-.31 1.469-1.387v-6.047c0-1.159-.348-1.708-1.469-1.708v-.404c.404.037.811.056 1.196.056.68.02 1.359-.07 2.01-.265v8.368zm.235-11.755A1.237 1.237 0 1166.205 9a1.248 1.248 0 011.237 1.233zM78.754 22.736c.44.601.77.934 1.345 1.009v.407c-.291 0-.98-.078-1.566-.078-.811 0-1.734.06-2.138.078v-.407c.374 0 .594-.15.594-.374a.542.542 0 00-.115-.295l-2.217-3.244c-.47-.658-.774-.819-1.45-.849v3.364c0 1.076.348 1.387 1.27 1.387v.418c-.403 0-1.33-.078-2.141-.078-.886 0-1.895.06-2.336.078v-.407c1.065 0 1.469-.31 1.469-1.387V11.321c0-1.159-.348-1.697-1.469-1.697v-.407c.397.04.797.06 1.196.06A6.17 6.17 0 0073.206 9v9.595a2.549 2.549 0 001.66-.8l1.432-1.495c.433-.453.613-.8.613-1.066 0-.47-.613-.661-1.424-.661v-.374c.673.037 1.622.075 2.179.075.643 0 1.293-.038 1.682-.075v.374c-.672.076-1.292.4-1.738.908l-2.347 2.47 3.49 4.785zM86.414 13.726c.613.62.773 1.338.773 2.706v5.371c0 .624.154.916.595.916.33-.018.64-.16.87-.396l.217.332c-.478.449-1.108.7-1.764.707-1.35 0-1.663-.811-1.663-1.716a3.364 3.364 0 01-2.99 1.716c-1.29 0-2.452-.65-2.452-2.16 0-1.51 1.181-2.21 3.113-3.02 1.294-.535 2.31-.868 2.31-1.641v-1.207c0-1.623-.792-1.944-1.79-1.944-.662 0-1.473.13-1.914.688a1.193 1.193 0 01.905 1.18 1.012 1.012 0 01-1.121 1.047c-.662 0-1.047-.5-1.047-1.2 0-.564.374-1.009.904-1.375a4.982 4.982 0 012.707-.729c1.095 0 1.906.284 2.347.725zm-.972 3.592c-.206.314-.632.508-1.846 1.121-.849.408-1.87.965-1.87 2.456 0 1.159.659 1.697 1.544 1.697.774 0 1.53-.407 2.18-1.461l-.008-3.813zM32.753 30.368v1.267h-.337v-.957H29V27h.351v3.364h2.437V27h.352v3.364l.613.004zM36.99 29.695c0 .635-.448.987-1.394.987H34V27h1.551c.811 0 1.308.325 1.308.938a.841.841 0 01-.68.845.848.848 0 01.811.912zm-2.616-1.017h1.18c.629 0 .98-.239.98-.699 0-.46-.351-.691-.98-.691h-1.18v1.39zm2.276 1.017c0-.497-.303-.725-.994-.725h-1.282v1.439h1.237c.673-.019 1.039-.24 1.039-.714zM41.51 28.965h-3.162a1.57 1.57 0 002.732.95l.205.23a1.752 1.752 0 01-1.386.599 1.806 1.806 0 01-1.895-1.869 1.762 1.762 0 013.041-1.318 1.761 1.761 0 01.472 1.318c0 .019-.007.052-.007.09zm-3.155-.277h2.818a1.409 1.409 0 10-2.818 0z" fill="#AE7C78"/><path d="M44.226 27.318h-1.44v3.364h-.35v-3.364H41V27h3.226v.318zM47.852 29.493c0 .781-.52 1.207-1.477 1.2H45V27h.374v1.327h1.095c.897.018 1.383.422 1.383 1.166zm-.351 0c0-.598-.374-.87-1.122-.886h-1.005v1.798h1.005c.736.037 1.122-.306 1.122-.912zM48.528 27h.355v3.678h-.355V27zM54.986 29.695c0 .635-.452.987-1.394.987H52V27h1.551c.807 0 1.308.325 1.308.938a.845.845 0 01-.684.845.848.848 0 01.811.912zm-2.642-1.013h1.185c.628 0 .979-.24.979-.699 0-.46-.351-.692-.98-.692h-1.184v1.39zm2.291 1.013c0-.497-.303-.725-.994-.725h-1.297v1.439h1.24c.685-.019 1.051-.24 1.051-.714zM63.085 26v4.93h-.373V26.32h-3.338v4.609H59V26h4.085zM67.506 28.965h-3.158a1.57 1.57 0 002.732.95l.205.23a1.753 1.753 0 01-1.386.599 1.806 1.806 0 01-1.895-1.869 1.762 1.762 0 013.041-1.318 1.761 1.761 0 01.472 1.318c-.004.019-.011.052-.011.09zm-3.158-.277h2.818a1.41 1.41 0 00-2.818 0zM71.24 27.318h-1.438v3.364h-.352v-3.364H68V27h3.226l.014.318zM74.513 28.959h-3.162a1.57 1.57 0 002.732.949l.202.232a1.75 1.75 0 01-1.386.598 1.806 1.806 0 01-1.895-1.87A1.756 1.756 0 0172.764 27a1.743 1.743 0 011.757 1.869c0 .019-.008.052-.008.09zm-3.154-.277h2.814a1.41 1.41 0 00-2.814 0zM79.667 28.866a1.78 1.78 0 01-1.82 1.869 1.641 1.641 0 01-1.496-.864v2.206H76v-5.05h.336v.867a1.637 1.637 0 011.495-.893 1.782 1.782 0 011.836 1.865zm-.356 0a1.495 1.495 0 10-1.495 1.551 1.465 1.465 0 001.495-1.551zM83.719 28.66a1.75 1.75 0 01-1.82 1.842c-1.222 0-1.899-.95-1.899-2.4 0-1.67.606-2.396 1.843-2.69L83.48 25l.056.333-1.551.373c-1.122.262-1.619.838-1.641 2.243a1.644 1.644 0 011.615-1.091 1.704 1.704 0 011.76 1.801zm-.374 0a1.451 1.451 0 10-2.897 0 1.45 1.45 0 102.897 0zM87.887 27L86 31.19c-.296.676-.662.893-1.148.893a1.175 1.175 0 01-.852-.332l.176-.266a.89.89 0 00.684.288c.336 0 .583-.153.81-.654l.195-.445-1.652-3.663h.374l1.472 3.29 1.473-3.29.355-.011zM92.655 28.866a1.776 1.776 0 01-1.816 1.868 1.651 1.651 0 01-1.495-.863v2.205H89v-5.05h.34v.868A1.637 1.637 0 0190.835 27a1.78 1.78 0 011.82 1.865zm-.351 0a1.494 1.494 0 10-1.495 1.55 1.465 1.465 0 001.495-1.55zM96.515 27.318h-2.164v3.364H94V27h2.515v.318z" fill="#AE7C78"/><path d="M99.513 28.959h-3.162a1.57 1.57 0 002.732.949l.206.232a1.762 1.762 0 01-1.39.598 1.806 1.806 0 01-1.895-1.87A1.757 1.757 0 0197.768 27a1.739 1.739 0 011.753 1.869c0 .019-.008.052-.008.09zm-3.154-.277h2.814a1.41 1.41 0 00-2.814 0z" fill="#AE7C78"/></g><defs><clipPath id="aclip0"><path fill="#fff" d="M0 0h100v32.278H0z"/></clipPath></defs></symbol><symbol fill="none" viewBox="0 0 100 33" id="logo_white" xmlns="http://www.w3.org/2000/svg"><g clip-path="url(#bclip0)"><path d="M9.719 17.438c-2.007 2.549-5.98 2.616-8.223.333-2.13-2.146-1.869-5.566.045-7.692.927-2.819 5.005-2.467 7.154-.748 2.49 2.007 3.054 5.524 1.024 8.107zM13.159 9.436c-1.974 0-2.785-1.23-2.953-2.725-.635-1.869.217-4.055 2.306-4.6a3.633 3.633 0 014.485 3.015 3.846 3.846 0 01-3.838 4.31z" fill="#FFDCDC"/><path d="M19.604 31.123l.123-.232c-.826-.527-1.648-1.061-2.47-1.592a12.116 12.116 0 01-1.914-1.869c-.77-.848-1.544-1.7-2.317-2.545-.068-.07-.154-.153-.161-.22a10.374 10.374 0 01-1.869-2.736 22.763 22.763 0 01-1.338-2.422c-.041-.09.052-.247.082-.374.166-.038.326-.1.475-.183.489-.428.845-.987 1.028-1.611.788-2.018 1.465-4.063 1.39-6.272a1.5 1.5 0 00-.1-.344 1.266 1.266 0 00-.289.21c-.523.691-1.054 1.379-1.547 2.093a8.817 8.817 0 00-1.495 3.393c-.112.58-.127 1.174-.183 1.76a1.209 1.209 0 01-.09-.149c-.314-.747-.617-1.495-.942-2.242a.426.426 0 01.112-.527c.377-.353.719-.741 1.02-1.159a14.44 14.44 0 001.746-4.32c.124-.548.205-1.104.243-1.664 0-.172-.12-.355-.183-.534a1.633 1.633 0 00-.486.284c-.403.486-.788.99-1.155 1.495a8.125 8.125 0 00-1.547 3.207c-.101.568-.146 1.147-.22 1.723h-.038l-.684-2.706.194.287c.077-.155.166-.303.266-.444.444-.557 1.016-1.047 1.323-1.671.45-.966.826-1.966 1.121-2.99.115-.479.175-.97.18-1.462 0-.123-.086-.25-.135-.373-.1.04-.243.056-.295.13-.73 1.006-1.495 1.989-2.15 3.035-.285.56-.518 1.146-.695 1.75a1.6 1.6 0 01.056-1.092 19.436 19.436 0 001.223-4.829c.113-1.166.164-2.338.153-3.51A1.454 1.454 0 007.909 0c-.135.067-.314.105-.404.213a7.67 7.67 0 00-1.61 3.054c-.404 1.749-.225 3.498.108 5.232.153.796.317 1.589.478 2.392-.796-.302-1.495-.609-2.213-.833a8.294 8.294 0 00-3.83-.116 1.38 1.38 0 00-.438.243c.079.16.181.307.303.437a4.908 4.908 0 003.05 1.1 9.053 9.053 0 002.616-.315c.463-.13.523-.078.628.374.127.55.254 1.099.396 1.644.101.404.224.808.348 1.26-.109-.06-.169-.086-.225-.123a4.186 4.186 0 00-2.934-.748c-1.084.176-2.149.471-3.221.722-.173.038-.34.095-.501.168a.269.269 0 000 .512c.531.269 1.087.488 1.66.654.69.122 1.388.2 2.089.235a6.477 6.477 0 003.363-.579l1.271 3.027a8.032 8.032 0 00-4.362-.373c-1.12.243-2.242.635-3.334.979-.138.045-.246.187-.373.28.116.124.209.307.351.374.686.307 1.396.557 2.123.748.694.105 1.395.153 2.097.145a7.717 7.717 0 003.528-.833c.149-.075.294-.157.434-.247l2.478 4.19c-.374-.146-.811-.336-1.252-.47-1.87-.576-3.816-.576-5.753-.375-.71.068-1.412.22-2.115.348-.303.056-.374.21-.183.396a6.764 6.764 0 002.126 1.525c1.352.55 2.798.83 4.258.826a5.8 5.8 0 003.517-.938.504.504 0 01.482.052c.81.894 1.592 1.813 2.422 2.77l-.658-.217a9.283 9.283 0 00-2.616-.53 11.41 11.41 0 00-4.893.986c-.422.172-.863.307-1.29.464a2.082 2.082 0 00-.283.153c.074.108.127.276.224.314.796.284 1.58.676 2.403.777 1.783.22 3.585.46 5.39.116.923-.172 1.85-.329 2.598-.972a1.34 1.34 0 01.179-.112c.134.153.282.295.44.423.816.553 1.63 1.12 2.46 1.633l.322.198a.12.12 0 00.04-.06zM9.512 6.047c-.374 1.72-.747 3.458-2.138 4.729A24.45 24.45 0 019.51 6.047h.003zm-.418-.127c-.7 1.608-1.495 3.41-2.243 5.188C6.832 8.97 7.927 7.322 9.09 5.92h.004zM1.129 10.16a7.745 7.745 0 014.111.564l-4.111-.47v-.094zm-.46.325l5.042.613c-1.196.718-4.238.306-5.042-.613zM6.186 7.89c-.67-2.616 0-6.002 1.465-7.352C6.705 2.89 6.56 5.393 6.186 7.89zM7.68 1.27c.336.913-.408 5.465-1.166 6.874.205-2.306.355-4.623 1.158-6.873h.008zM6.264 14.447c.292.135.56.31.841.467l-.037.13a33.92 33.92 0 00-5.779-.28c1.638-.452 3.263-1.106 4.975-.317zm-5.124.747c.62-.25 4.986-.138 6.07.157-1.177.722-5.15.59-6.07-.16v.003zm6.96-.373a36.46 36.46 0 012.706-6.104c-.505 2.194-1.047 4.388-2.707 6.089v.015zm2.616-6.836l-2.807 6.092c-.09-2.49 1.42-4.261 2.807-6.107v.015zM1.159 19.57c2.324-1.218 6.032-1.656 7.744-.52a3.094 3.094 0 01-.374-.026c-1.304-.239-2.594-.048-3.88.146-.964.146-1.928.288-2.892.419a3.852 3.852 0 01-.587-.037l-.011.018zm.938.24c2.306-.28 4.586-.916 6.96-.486-1.006.975-4.751 1.607-6.96.485zm10.24-7.98a1.84 1.84 0 010 .35c-.201.999-.373 2.012-.634 2.991-.268.91-.598 1.8-.987 2.665-.21.35-.46.674-.748.964-.078.101-.15.206-.224.31-.026-.15-.108-.317-.064-.44a483.22 483.22 0 011.82-4.916c.24-.646.49-1.289.748-1.936l.09.012zm-.62.43c-.766 2.01-1.528 4.025-2.317 6.095-.18-2.433.852-4.346 2.317-6.096zm-.22 11.84l-7.838-.553c1.48-.557 6.036-.61 7.838.553zm-1.121 1.495a9.994 9.994 0 01-6.388-1.054 5.963 5.963 0 01-.848-.661l.04-.083c3.006.23 6.016.461 9.03.696.064 0 .12.097.218.183a3.914 3.914 0 01-2.045.916l-.007.003zm5.176 2.81c-2.75.188-5.505.08-8.335.076 2.811-1.23 5.566-1.372 8.335-.075zm-.205.79a10.419 10.419 0 01-4.142.631c-.598-.04-1.192-.104-1.79-.108a7.557 7.557 0 01-3.057-.77c3.203-.318 6.417.067 9.62-.28 0 .04.019.078.027.115-.203.167-.424.31-.658.426v-.014zM14.368 7.637c-.303.766-.882 1.076-1.533.818a1.248 1.248 0 01-.773-1.566c.235-.613 1.121-1.054 1.712-.83a1.248 1.248 0 01.594 1.578zm-.292-.113a.976.976 0 00-.456-1.184 1.177 1.177 0 00-1.311.624.94.94 0 00.598 1.215c.493.194.938-.06 1.17-.655z" fill="#fff"/><path d="M4.218 7.061a.815.815 0 01.55 1.02 1.013 1.013 0 01-1.316.599.796.796 0 01-.374-1.062.856.856 0 011.14-.557zm-.112.262a.598.598 0 00-.8.374.58.58 0 00.243.747.777.777 0 00.957-.43.557.557 0 00-.404-.676l.004-.015zM12.07 4.53c.187-.43.47-.616.747-.493a.781.781 0 01.374.946.658.658 0 01-.852.254.478.478 0 01-.27-.706zM3.73 5.036a.542.542 0 01.281.747.635.635 0 01-.748.355c-.25-.1-.332-.404-.201-.729.13-.325.396-.486.669-.373zM1 6.329c.13-.374.344-.374.5-.27.158.106.18.281.27.427a1.41 1.41 0 01-.546.176c-.1-.012-.175-.258-.224-.333zM14.14 4.878c-.072-.254-.176-.437-.128-.504.135-.148.291-.274.464-.374.077.184.12.38.127.58 0 .1-.232.156-.463.298zM20.414 16.436c3.057.408 3.943 1.918 3.943 3.484 0 2.197-1.742 3.737-4.638 3.737-.576 0-1.738-.06-3.323-.06-.905 0-1.869.023-2.396.06v-.373c1.312-.057 1.566-.255 1.566-1.66v-9.59c0-1.406-.254-1.604-1.566-1.66V10c.538.037 1.495.056 2.358.056 1.219 0 2.452-.037 2.916-.037 2.706-.015 4.089 1.24 4.089 3.03 0 1.369-.774 2.7-2.934 3.365l-.015.022zm-3.054-4.403v4.38h1.3c2.273 0 2.834-1.494 2.834-3.165 0-1.895-.774-2.874-2.71-2.874-1.17 0-1.424.329-1.424 1.66zm5.065 7.8c0-1.962-.99-3.101-3.443-3.101H17.36v4.884c0 1.35.254 1.604 1.45 1.604 2.53 0 3.615-1.2 3.615-3.386zM34.772 18.255c0 3.708-1.932 5.233-4.384 5.233-2.452 0-4.388-1.54-4.388-5.233C26 14.562 27.932 13 30.388 13s4.384 1.54 4.384 5.255zm-6.896 0c0 3.454 1.047 4.859 2.512 4.859s2.508-1.394 2.508-4.859-1.04-4.859-2.508-4.859c-1.469 0-2.512 1.398-2.512 4.86zM42.459 14.214v.374h-2.86v7.475c0 1.215.464 1.641 1.238 1.641.773 0 1.337-.557 1.745-2.067l.374.097c-.266 1.495-.946 2.67-2.508 2.67-.89 0-1.41-.218-1.832-.644-.564-.575-.747-1.33-.747-2.706V14.6H36v-.373h1.869v-2.953c.589 0 1.174-.092 1.734-.273v3.226l2.856-.012zM49.399 13.726c.613.62.77 1.338.77 2.706v5.371c0 .624.153.916.594.916.33-.018.64-.16.87-.396l.218.332c-.479.449-1.109.7-1.764.707-1.35 0-1.66-.811-1.66-1.716a3.364 3.364 0 01-2.971 1.716c-1.294 0-2.456-.65-2.456-2.16 0-1.51 1.181-2.21 3.113-3.02 1.294-.535 2.314-.867 2.314-1.641v-1.207c0-1.623-.792-1.944-1.794-1.944-.662 0-1.473.13-1.914.688a1.193 1.193 0 01.905 1.18 1.013 1.013 0 01-.692 1.001c-.138.046-.285.062-.43.046-.661 0-1.046-.5-1.046-1.2 0-.564.374-1.009.904-1.375a4.986 4.986 0 012.71-.729c1.073 0 1.884.284 2.329.725zm-.972 3.592c-.21.314-.635.508-1.85 1.121-.849.408-1.869.965-1.869 2.456 0 1.159.658 1.697 1.547 1.697.774 0 1.525-.407 2.18-1.461l-.008-3.813zM61.544 13.725c.482.527.67 1.215.67 2.538v5.162c0 1.076.407 1.386 1.472 1.386v.408c-.441 0-1.473-.079-2.321-.079-.849 0-1.753.06-2.16.079v-.408c.926 0 1.274-.31 1.274-1.386V15.84c0-1.2-.168-2.243-1.566-2.243-1.622 0-2.706 1.547-2.706 3.52v4.307c0 1.076.347 1.386 1.282 1.386v.408c-.404 0-1.32-.079-2.168-.079-.848 0-1.869.06-2.321.079v-.408c1.065 0 1.469-.31 1.469-1.386v-6.048c0-1.159-.348-1.708-1.469-1.708v-.404c.404.038.811.056 1.196.056.68.02 1.359-.07 2.01-.265v2.276C56.888 13.594 58.177 13 59.5 13c.979 0 1.603.265 2.044.725zM67.207 21.988c0 1.077.404 1.387 1.469 1.387v.407c-.441 0-1.45-.078-2.34-.078-.89 0-1.895.06-2.336.078v-.407c1.065 0 1.469-.31 1.469-1.387v-6.047c0-1.159-.348-1.708-1.469-1.708v-.404c.404.037.811.056 1.196.056.68.02 1.359-.07 2.01-.265v8.368zm.235-11.755A1.237 1.237 0 1166.205 9a1.248 1.248 0 011.237 1.233zM78.754 22.736c.44.601.77.934 1.345 1.009v.407c-.291 0-.98-.078-1.566-.078-.811 0-1.734.06-2.138.078v-.407c.374 0 .594-.15.594-.374a.542.542 0 00-.115-.295l-2.217-3.244c-.47-.658-.774-.819-1.45-.849v3.364c0 1.076.348 1.387 1.27 1.387v.418c-.403 0-1.33-.078-2.141-.078-.886 0-1.895.06-2.336.078v-.407c1.065 0 1.469-.31 1.469-1.387V11.321c0-1.159-.348-1.697-1.469-1.697v-.407c.397.04.797.06 1.196.06A6.17 6.17 0 0073.206 9v9.595a2.549 2.549 0 001.66-.8l1.432-1.495c.433-.453.613-.8.613-1.066 0-.47-.613-.661-1.424-.661v-.374c.673.037 1.622.075 2.179.075.643 0 1.293-.038 1.682-.075v.374c-.672.076-1.292.4-1.738.908l-2.347 2.47 3.49 4.785zM86.414 13.726c.613.62.773 1.338.773 2.706v5.371c0 .624.154.916.595.916.33-.018.64-.16.87-.396l.217.332c-.478.449-1.108.7-1.764.707-1.35 0-1.663-.811-1.663-1.716a3.364 3.364 0 01-2.99 1.716c-1.29 0-2.452-.65-2.452-2.16 0-1.51 1.181-2.21 3.113-3.02 1.294-.535 2.31-.868 2.31-1.641v-1.207c0-1.623-.792-1.944-1.79-1.944-.662 0-1.473.13-1.914.688a1.193 1.193 0 01.905 1.18 1.012 1.012 0 01-1.121 1.047c-.662 0-1.047-.5-1.047-1.2 0-.564.374-1.009.904-1.375a4.982 4.982 0 012.707-.729c1.095 0 1.906.284 2.347.725zm-.972 3.592c-.206.314-.632.508-1.846 1.121-.849.408-1.87.965-1.87 2.456 0 1.159.659 1.697 1.544 1.697.774 0 1.53-.407 2.18-1.461l-.008-3.813zM32.753 30.368v1.267h-.337v-.957H29V27h.351v3.364h2.437V27h.352v3.364l.613.004zM36.99 29.695c0 .635-.448.987-1.394.987H34V27h1.551c.811 0 1.308.325 1.308.938a.841.841 0 01-.68.845.848.848 0 01.811.912zm-2.616-1.017h1.18c.629 0 .98-.239.98-.699 0-.46-.351-.691-.98-.691h-1.18v1.39zm2.276 1.017c0-.497-.303-.725-.994-.725h-1.282v1.439h1.237c.673-.019 1.039-.24 1.039-.714zM41.51 28.965h-3.162a1.57 1.57 0 002.732.95l.205.23a1.752 1.752 0 01-1.386.599 1.806 1.806 0 01-1.895-1.869 1.762 1.762 0 013.041-1.318 1.761 1.761 0 01.472 1.318c0 .019-.007.052-.007.09zm-3.155-.277h2.818a1.409 1.409 0 10-2.818 0z" fill="#fff"/><path d="M44.226 27.318h-1.44v3.364h-.35v-3.364H41V27h3.226v.318zM47.852 29.493c0 .781-.52 1.207-1.477 1.2H45V27h.374v1.327h1.095c.897.018 1.383.422 1.383 1.166zm-.351 0c0-.598-.374-.87-1.122-.886h-1.005v1.798h1.005c.736.037 1.122-.306 1.122-.912zM48.528 27h.355v3.678h-.355V27zM54.986 29.695c0 .635-.452.987-1.394.987H52V27h1.551c.807 0 1.308.325 1.308.938a.845.845 0 01-.684.845.848.848 0 01.811.912zm-2.642-1.013h1.185c.628 0 .979-.24.979-.699 0-.46-.351-.692-.98-.692h-1.184v1.39zm2.291 1.013c0-.497-.303-.725-.994-.725h-1.297v1.439h1.24c.685-.019 1.051-.24 1.051-.714zM63.085 26v4.93h-.373V26.32h-3.338v4.609H59V26h4.085zM67.506 28.965h-3.158a1.57 1.57 0 002.732.95l.205.23a1.753 1.753 0 01-1.386.599 1.806 1.806 0 01-1.895-1.869 1.762 1.762 0 013.041-1.318 1.761 1.761 0 01.472 1.318c-.004.019-.011.052-.011.09zm-3.158-.277h2.818a1.41 1.41 0 00-2.818 0zM71.24 27.318h-1.438v3.364h-.352v-3.364H68V27h3.226l.014.318zM74.513 28.959h-3.162a1.57 1.57 0 002.732.949l.202.232a1.75 1.75 0 01-1.386.598 1.806 1.806 0 01-1.895-1.87A1.756 1.756 0 0172.764 27a1.743 1.743 0 011.757 1.869c0 .019-.008.052-.008.09zm-3.154-.277h2.814a1.41 1.41 0 00-2.814 0zM79.667 28.866a1.78 1.78 0 01-1.82 1.869 1.641 1.641 0 01-1.496-.864v2.206H76v-5.05h.336v.867a1.637 1.637 0 011.495-.893 1.782 1.782 0 011.836 1.865zm-.356 0a1.495 1.495 0 10-1.495 1.551 1.465 1.465 0 001.495-1.551zM83.719 28.66a1.75 1.75 0 01-1.82 1.842c-1.222 0-1.899-.95-1.899-2.4 0-1.67.606-2.396 1.843-2.69L83.48 25l.056.333-1.551.373c-1.122.262-1.619.838-1.641 2.243a1.644 1.644 0 011.615-1.091 1.704 1.704 0 011.76 1.801zm-.374 0a1.451 1.451 0 10-2.897 0 1.45 1.45 0 102.897 0zM87.887 27L86 31.19c-.296.676-.662.893-1.148.893a1.175 1.175 0 01-.852-.332l.176-.266a.89.89 0 00.684.288c.336 0 .583-.153.81-.654l.195-.445-1.652-3.663h.374l1.472 3.29 1.473-3.29.355-.011zM92.655 28.866a1.776 1.776 0 01-1.816 1.868 1.651 1.651 0 01-1.495-.863v2.205H89v-5.05h.34v.868A1.637 1.637 0 0190.835 27a1.78 1.78 0 011.82 1.865zm-.351 0a1.494 1.494 0 10-1.495 1.55 1.465 1.465 0 001.495-1.55zM96.515 27.318h-2.164v3.364H94V27h2.515v.318z" fill="#fff"/><path d="M99.513 28.959h-3.162a1.57 1.57 0 002.732.949l.206.232a1.762 1.762 0 01-1.39.598 1.806 1.806 0 01-1.895-1.87A1.757 1.757 0 0197.768 27a1.739 1.739 0 011.753 1.869c0 .019-.008.052-.008.09zm-3.154-.277h2.814a1.41 1.41 0 00-2.814 0z" fill="#fff"/></g><defs><clipPath id="bclip0"><path fill="#fff" d="M0 0h100v32.278H0z"/></clipPath></defs></symbol></svg>