<svg viewBox="0 0 52 52" xmlns="http://www.w3.org/2000/svg">
        <path
      d="M35.6377 13.8987C35.8493 13.8987 36.0625 13.882 36.2755 13.8483C37.3356 13.6802 38.2668 13.1093 38.8975 12.2408L42.7248 6.97096C42.8799 6.75738 42.9134 6.47869 42.8133 6.23443C42.7132 5.99018 42.4937 5.81519 42.2333 5.77192C42.1654 5.76065 40.6643 5.51415 38.8314 5.49384C38.2444 3.75774 37.547 2.40706 37.5148 2.3449C37.3931 2.1106 37.1588 1.95602 36.8956 1.93642C36.6326 1.91631 36.3776 2.03473 36.2225 2.24842L32.3951 7.51828C31.7644 8.38674 31.5096 9.44878 31.6777 10.5089C31.8021 11.2939 32.1479 12.0077 32.6714 12.5817C32.092 13.2702 31.0719 14.523 29.9535 16.0822V15.4162C29.9535 14.9955 29.6124 14.6545 29.1918 14.6545C28.7711 14.6545 28.43 14.9955 28.43 15.4162V18.3265C27.8187 19.2835 27.2234 20.2952 26.697 21.3223V17.0447C26.697 17.0446 26.697 17.0444 26.697 17.0442V15.7317L28.9163 13.5124C29.2138 13.2149 29.2138 12.7326 28.9163 12.4352C28.6188 12.1377 28.1365 12.1377 27.8391 12.4352L26.6968 13.5773V11.2197C28.5493 10.8626 29.9533 9.23001 29.9533 7.27484V0.761749C29.9533 0.497789 29.8166 0.252618 29.592 0.113782C29.3675 -0.0250537 29.0871 -0.0376475 28.8509 0.0804695C28.7894 0.111243 27.4311 0.794452 25.9352 1.85466C24.44 0.794859 23.0818 0.111751 23.0192 0.0804695C22.783 -0.0376475 22.5026 -0.0249522 22.2781 0.113782C22.0535 0.252618 21.9168 0.497789 21.9168 0.761749V7.27484C21.9168 9.23001 23.3208 10.8627 25.1733 11.2197V15.2055L23.2171 13.2493C22.9197 12.9519 22.4374 12.9519 22.14 13.2493C21.8425 13.5468 21.8425 14.0291 22.14 14.3265L25.1734 17.36V21.3223C23.2306 17.5318 20.348 13.9469 19.199 12.5817C19.7225 12.0077 20.0683 11.2939 20.1927 10.5089C20.3608 9.44878 20.106 8.38674 19.4753 7.51828L15.6479 2.24842C15.4928 2.03473 15.2378 1.91641 14.9749 1.93642C14.7116 1.95602 14.4773 2.1106 14.3556 2.3449C14.3231 2.40706 13.6257 3.75784 13.0388 5.49394C11.2067 5.51446 9.70489 5.76065 9.63695 5.77192C9.37654 5.81519 9.15696 5.99018 9.05692 6.23443C8.95678 6.47869 8.9903 6.75738 9.14538 6.97096L12.9728 12.2408C13.6035 13.1093 14.5346 13.6801 15.5947 13.8483C15.8078 13.8821 16.0208 13.8987 16.2325 13.8987C16.8383 13.8987 17.4314 13.7612 17.9752 13.4964C18.2105 13.7765 18.5356 14.1701 18.9205 14.6546H18.2517C17.831 14.6546 17.4899 14.9956 17.4899 15.4163C17.4899 15.8369 17.831 16.178 18.2517 16.178H20.0916C21.2045 17.6745 22.4942 19.5576 23.543 21.5004C22.304 20.2829 20.9272 19.1905 19.4238 18.2337C14.8622 15.3309 10.7522 14.6889 10.5794 14.663C10.3604 14.6302 10.1374 14.6945 9.96946 14.8391C9.80138 14.9838 9.70479 15.1946 9.70479 15.4163C9.70479 15.538 9.72155 18.4449 11.1743 22.492C12.4862 26.1465 15.2728 31.4532 21.1027 36.1351V38.9264L17.8719 51.042C17.8109 51.2706 17.8596 51.5147 18.0039 51.7024C18.148 51.89 18.3712 52 18.6078 52H33.2623C33.4989 52 33.7221 51.89 33.8663 51.7024C34.0105 51.5147 34.0592 51.2707 33.9982 51.042L30.7674 38.9264V36.1351C36.5972 31.4532 39.3839 26.1465 40.6958 22.492C42.1487 18.4449 42.1653 15.538 42.1653 15.4163C42.1653 15.1946 42.0686 14.9838 41.9007 14.8391C41.7327 14.6944 41.5101 14.63 41.2906 14.663C41.1897 14.6781 38.7831 15.0503 35.6146 16.5087C33.5384 17.4642 30.8433 19.0373 28.3207 21.5132C29.3707 19.5663 30.6638 17.6781 31.7792 16.178H33.6183C34.039 16.178 34.3801 15.8369 34.3801 15.4163C34.3801 14.9956 34.039 14.6546 33.6183 14.6546H32.9501C33.3348 14.1702 33.6597 13.7766 33.8949 13.4965C34.4389 13.7612 35.0319 13.8987 35.6377 13.8987ZM40.7322 7.12219L39.582 8.70585C39.5278 8.18453 39.4291 7.62635 39.2822 7.02855C39.8185 7.04683 40.3155 7.08289 40.7322 7.12219ZM12.2881 8.70585L11.1377 7.12189C11.554 7.08258 12.0509 7.04673 12.5879 7.02865C12.441 7.62645 12.3424 8.18453 12.2881 8.70585ZM17.69 11.8982C17.1507 12.2898 16.4914 12.448 15.8332 12.3436C15.175 12.2392 14.5969 11.8849 14.2053 11.3457C13.113 9.84172 14.2716 6.28765 15.1738 4.18826L18.2425 8.41345C19.0509 9.52647 18.803 11.0897 17.69 11.8982ZM28.4298 2.05494V4.0091C28.0802 3.62022 27.6708 3.22738 27.2017 2.83118C27.6464 2.53076 28.0695 2.26802 28.4298 2.05494ZM23.4403 7.27484V2.05281C25.4041 3.22139 28.4299 5.41605 28.4299 7.27484C28.4299 8.6505 27.3107 9.76962 25.9352 9.76962C24.5596 9.76962 23.4403 8.6505 23.4403 7.27484ZM12.6316 22.0425C11.7302 19.5519 11.4077 17.4989 11.2922 16.3672C12.7128 16.7132 15.5664 17.5847 18.6059 19.519C21.1239 21.1214 23.2623 23.1267 24.9613 25.4793C26.9269 28.2009 28.3086 31.4034 29.0774 35.0079H27.3032C26.3291 30.7348 24.412 27.0974 21.5979 24.1897C21.3054 23.8874 20.8232 23.8795 20.5209 24.1722C20.2185 24.4647 20.2107 24.947 20.5033 25.2492C23.0462 27.8767 24.8033 31.1568 25.7372 35.0079H22.1321C16.5524 30.5533 13.886 25.5089 12.6316 22.0425ZM29.244 36.5313V38.2644H22.6261V36.5313H29.244ZM32.2708 50.4765H29.0444L28.9155 49.5095C28.86 49.0926 28.4769 48.7994 28.0598 48.8552C27.6428 48.9107 27.3499 49.2938 27.4055 49.7108L27.5075 50.4764H19.5994L22.4496 39.7878H26.0823L26.9712 46.4542C27.0222 46.8371 27.3493 47.1154 27.7253 47.1154C27.7588 47.1154 27.7927 47.1132 27.8269 47.1086C28.2439 47.053 28.5368 46.6699 28.4812 46.2529L27.6192 39.7878H29.4205L32.2708 50.4765ZM36.2031 17.9149C38.0443 17.0628 39.6294 16.5989 40.5777 16.3677C40.4622 17.4998 40.1396 19.5524 39.2384 22.0425C38.0424 25.3475 35.5636 30.0873 30.4993 34.3824C29.7663 31.1082 28.5447 28.1478 26.8561 25.5537C29.7843 21.468 33.5382 19.1481 36.2031 17.9149ZM33.6276 8.41345L36.6968 4.18755C37.5998 6.28593 38.7592 9.83878 37.6648 11.3457C37.2732 11.8849 36.6951 12.2392 36.037 12.3436C35.3787 12.4479 34.7194 12.2898 34.1802 11.8982C33.0671 11.0897 32.8193 9.52658 33.6276 8.41345Z"
    />
        <path
      d="M18.8471 22.2663C18.3087 21.8608 17.7422 21.4732 17.1631 21.1144C16.8054 20.8927 16.336 21.003 16.1144 21.3606C15.8928 21.7182 16.003 22.1877 16.3606 22.4093C16.9005 22.744 17.4287 23.1053 17.9305 23.4832C18.0678 23.5865 18.2287 23.6365 18.3881 23.6365C18.6192 23.6365 18.8474 23.5318 18.9972 23.333C19.2504 22.997 19.1831 22.5194 18.8471 22.2663Z"
    />
</svg>
