<svg viewBox="0 0 82 52" xmlns="http://www.w3.org/2000/svg">
    <path
    d="M80.6664 24.0056C79.8139 22.987 78.651 22.3251 77.3179 22.0776L76.6917 13.5574C77.3094 13.5515 77.8362 13.1054 77.9438 12.4942L78.1853 11.1213C78.4441 9.64958 78.0831 8.19685 77.1947 7.13571C76.3075 6.0757 75.0084 5.49175 73.5368 5.49175H64.1109L64.5698 2.88347C64.7 2.14266 64.5113 1.40296 64.0523 0.854493C63.5978 0.311484 62.9144 0 62.1773 0H15.7792C14.4072 0 13.1442 1.07012 12.9038 2.43664L8.79883 25.7766C8.67583 26.4766 9.14205 27.1442 9.84033 27.2675C9.9156 27.2809 9.99055 27.2873 10.0647 27.2873C10.676 27.2873 11.2178 26.8478 11.3275 26.2234L15.4327 2.88347C15.4597 2.72982 15.657 2.57408 15.7791 2.57408L62.0166 2.57424L57.9356 25.7766C57.8124 26.4766 58.2787 27.1442 58.9771 27.2675C59.6746 27.3907 60.3413 26.9235 60.4643 26.2234L60.7603 24.5409H76.1138C76.1143 24.5409 76.115 24.5409 76.1156 24.5409C76.1162 24.5409 76.1169 24.5409 76.1174 24.5409C77.1786 24.5411 78.0954 24.9385 78.6994 25.6599C79.115 26.1565 79.3575 26.7746 79.4158 27.4584H75.151C74.5278 27.4584 73.9948 27.9069 73.8865 28.5221L73.4037 31.268C73.2091 32.3743 73.4839 33.4704 74.1575 34.2753C74.8219 35.0692 75.8304 35.5244 76.9241 35.5244H78.1329L77.1368 41.1878H73.747C73.5239 40.0551 73.0356 39.0132 72.2955 38.1293C70.9824 36.5602 69.05 35.6962 66.8547 35.6962C63.3346 35.6962 59.9385 38.0051 58.3486 41.188H57.8325L59.4986 31.7152C59.6216 31.0151 59.1555 30.3475 58.4571 30.2242C57.7591 30.1006 57.0929 30.5681 56.9699 31.2683L55.2251 41.1881H31.4576C31.2345 40.0554 30.7462 39.0137 30.0061 38.1297C28.6928 36.5605 26.7605 35.6965 24.5651 35.6965C21.045 35.6965 17.6489 38.0054 16.059 41.1883L8.69537 41.1881L9.20851 38.2708H14.9788C15.6878 38.2708 16.2628 37.6945 16.2628 36.9836C16.2628 36.2728 15.688 35.6964 14.9788 35.6964H1.28397C0.574961 35.6964 0 36.2726 0 36.9836C0 37.6944 0.574801 38.2708 1.28397 38.2708H6.60133L6.14248 40.8791C6.01227 41.6199 6.20093 42.3596 6.65994 42.908C7.11447 43.451 7.79785 43.7625 8.53489 43.7625H15.2253C14.8772 45.946 15.4003 48.0029 16.7096 49.5669C18.0229 51.136 19.9552 52 22.1506 52C26.5203 52 30.7009 48.4435 31.4698 44.0716C31.4879 43.968 31.5021 43.8651 31.5165 43.7624H57.5149C57.1667 45.9456 57.6898 48.0026 58.9992 49.5667C60.3125 51.1359 62.2448 51.9998 64.4402 51.9998C68.8099 51.9998 72.9905 48.4433 73.7594 44.0714C73.7775 43.9679 73.7917 43.865 73.8061 43.7622H78.2144C78.8376 43.7622 79.3706 43.3138 79.4789 42.6985L81.8937 28.9691C82.2214 27.1055 81.7856 25.3428 80.6664 24.0056ZM61.2134 21.9672L62.6924 13.5579H74.1173L74.7354 21.9672H61.2134ZM75.6564 10.6744L75.602 10.9837H63.145L63.6582 8.06615H73.5368C74.2362 8.06615 74.8367 8.32337 75.2275 8.79043C75.6327 9.27435 75.7852 9.94324 75.6564 10.6744ZM28.9411 43.6249C28.3786 46.8237 25.3323 49.4259 22.1506 49.4259C20.7274 49.4259 19.4936 48.8884 18.6766 47.9125C17.8361 46.9082 17.5158 45.5444 17.7748 44.0721C18.3374 40.8733 21.3836 38.2711 24.5653 38.2711C25.9884 38.2711 27.2223 38.8087 28.0392 39.7847C28.8797 40.7887 29.2 42.1526 28.9411 43.6249ZM71.2305 43.6249C70.6679 46.8237 67.6217 49.4259 64.44 49.4259C63.0169 49.4259 61.783 48.8884 60.9661 47.9123C60.1256 46.908 59.8053 45.5443 60.0642 44.0719C60.6267 40.8731 63.673 38.2709 66.8547 38.2709C68.2777 38.2709 69.5117 38.8085 70.3287 39.7845C71.1692 40.7887 71.4895 42.1526 71.2305 43.6249ZM78.5857 32.9508H76.9241V32.9507C76.5815 32.9507 76.3051 32.8367 76.1246 32.6212C75.9373 32.3974 75.869 32.0758 75.9324 31.7156L76.2283 30.0335H79.0988L78.5857 32.9508Z"
  />
    <path
    d="M25.7909 41.8545C25.3363 41.3115 24.6529 41 23.9157 41C22.5437 41 21.2807 42.0701 21.0403 43.4366C20.9101 44.1775 21.0988 44.9172 21.5578 45.4656C22.0123 46.0086 22.6957 46.3201 23.4327 46.3201C24.8048 46.3201 26.0678 45.2498 26.3082 43.8836C26.4385 43.1427 26.25 42.4031 25.7909 41.8545Z"
  />
    <path
    d="M67.7906 41.8545C67.3359 41.3115 66.6525 41 65.9156 41C64.5436 41 63.2806 42.0701 63.0403 43.4365C62.9101 44.1775 63.0985 44.917 63.5576 45.4656C64.0122 46.0086 64.6956 46.3201 65.4326 46.3201C66.8047 46.3201 68.0676 45.2498 68.308 43.8836C68.4384 43.1427 68.2497 42.4031 67.7906 41.8545Z"
  />
    <path
    d="M51.5531 36H35.284C34.575 36 34 36.5762 34 37.2872C34 37.998 34.5748 38.5744 35.284 38.5744H51.5531C52.2621 38.5744 52.8371 37.9982 52.8371 37.2872C52.8369 36.5762 52.2621 36 51.5531 36Z"
  />
    <path
    d="M28.9689 30H5.28397C4.57496 30 4 30.5762 4 31.2872C4 31.998 4.57464 32.5744 5.28397 32.5744H28.9689C29.6779 32.5744 30.2528 31.9982 30.2528 31.2872C30.2528 30.5762 29.678 30 28.9689 30Z"
  />
    <path
    d="M53.1279 25.4321L48.3745 21.3133C47.838 20.8486 47.0273 20.9076 46.5635 21.4454C46.0996 21.9833 46.1587 22.796 46.6953 23.261L48.8394 25.119H16.284C15.575 25.119 15 25.6953 15 26.4062C15 27.117 15.5748 27.6934 16.284 27.6934H48.0252L45.377 29.4522C44.7857 29.8446 44.6241 30.6434 45.0157 31.236C45.2627 31.6099 45.6711 31.8124 46.0872 31.8124C46.3306 31.8124 46.5769 31.743 46.795 31.598L52.9974 27.4792C53.3325 27.257 53.544 26.8903 53.5697 26.4883C53.5953 26.0861 53.4319 25.6953 53.1279 25.4321Z"
  />
</svg>
