<svg viewBox="0 0 70 53" xmlns="http://www.w3.org/2000/svg">
<path
    d="M22.3287 15H10.5713C9.15353 15 8 16.1535 8 17.5713V26.8534C8 28.2712 9.15353 29.4247 10.5713 29.4247H22.3286C23.7464 29.4247 24.8999 28.2712 24.8999 26.8534V17.5713C24.8999 16.1535 23.7465 15 22.3287 15ZM22.8513 17.5713V21.188H17.4742V17.0485H22.3286C22.6169 17.0487 22.8513 17.2832 22.8513 17.5713ZM10.0487 26.8534V17.5713C10.0487 17.2832 10.2832 17.0487 10.5713 17.0487H15.4256V27.3761H10.5713C10.2832 27.3761 10.0487 27.1416 10.0487 26.8534ZM22.3287 27.3761H17.4744V23.2367H22.8514V26.8533C22.8513 27.1416 22.6169 27.3761 22.3287 27.3761Z"
  />
<path
    d="M8 41.0243C8 41.5902 8.45863 42.0487 9.02433 42.0487H39.1672C39.7329 42.0487 40.1915 41.5902 40.1915 41.0243C40.1915 40.4585 39.7329 40 39.1672 40H9.02433C8.45863 40 8 40.4585 8 41.0243Z"
  />
<path
    d="M9.02433 44C8.45863 44 8 44.4585 8 45.0244C8 45.5903 8.45863 46.0488 9.02433 46.0488H24.0958C24.6615 46.0488 25.1201 45.5903 25.1201 45.0244C25.1201 44.4585 24.6615 44 24.0958 44H9.02433Z"
  />
<path
    d="M27.0487 36.5007V34.0243C27.0487 33.4585 26.59 33 26.0243 33C25.4586 33 25 33.4585 25 34.0243V36.5007C25 37.0666 25.4586 37.5251 26.0243 37.5251C26.59 37.5251 27.0487 37.0666 27.0487 36.5007Z"
  />
<path
    d="M32.0487 36.5007V34.0243C32.0487 33.4585 31.59 33 31.0243 33C30.4586 33 30 33.4585 30 34.0243V36.5007C30 37.0666 30.4586 37.5251 31.0243 37.5251C31.59 37.5251 32.0487 37.0666 32.0487 36.5007Z"
  />
<path
    d="M36.0487 36.5007V34.0243C36.0487 33.4585 35.59 33 35.0243 33C34.4586 33 34 33.4585 34 34.0243V36.5007C34 37.0666 34.4586 37.5251 35.0243 37.5251C35.59 37.5251 36.0487 37.0666 36.0487 36.5007Z"
  />
<path
    d="M41.0487 36.5007V34.0243C41.0487 33.4585 40.59 33 40.0243 33C39.4586 33 39 33.4585 39 34.0243V36.5007C39 37.0666 39.4586 37.5251 40.0243 37.5251C40.59 37.5251 41.0487 37.0666 41.0487 36.5007Z"
  />
<path
    d="M47 34.0243V36.5007C47 37.0666 47.4586 37.5251 48.0243 37.5251C48.59 37.5251 49.0487 37.0666 49.0487 36.5007V34.0243C49.0487 33.4585 48.59 33 48.0243 33C47.4586 33 47 33.4586 47 34.0243Z"
  />
<path
    d="M51 34.0243V36.5007C51 37.0666 51.4586 37.5251 52.0243 37.5251C52.59 37.5251 53.0487 37.0666 53.0487 36.5007V34.0243C53.0487 33.4585 52.59 33 52.0243 33C51.4586 33 51 33.4586 51 34.0243Z"
  />
<path
    d="M56 34.0243V36.5007C56 37.0666 56.4586 37.5251 57.0243 37.5251C57.59 37.5251 58.0487 37.0666 58.0487 36.5007V34.0243C58.0487 33.4585 57.59 33 57.0243 33C56.4586 33 56 33.4586 56 34.0243Z"
  />
<path
    d="M9.02433 37.5251C9.59003 37.5251 10.0487 37.0666 10.0487 36.5007V34.0243C10.0487 33.4585 9.59003 33 9.02433 33C8.45863 33 8 33.4585 8 34.0243V36.5007C8 37.0666 8.45863 37.5251 9.02433 37.5251Z"
  />
<path
    d="M14.0487 36.5007V34.0243C14.0487 33.4585 13.59 33 13.0243 33C12.4586 33 12 33.4585 12 34.0243V36.5007C12 37.0666 12.4586 37.5251 13.0243 37.5251C13.59 37.5251 14.0487 37.0666 14.0487 36.5007Z"
  />
<path
    d="M19.0487 36.5007V34.0243C19.0487 33.4585 18.59 33 18.0243 33C17.4586 33 17 33.4585 17 34.0243V36.5007C17 37.0666 17.4586 37.5251 18.0243 37.5251C18.59 37.5251 19.0487 37.0666 19.0487 36.5007Z"
  />
<path
    d="M70.1913 10.4064C70.1913 4.66822 65.5229 0 59.7849 0C54.6454 0 50.3671 3.74605 49.5297 8.65055H23.0243C22.4586 8.65055 22 9.10904 22 9.67488C22 10.2407 22.4586 10.6992 23.0243 10.6992H49.3826C49.5393 16.3384 54.1936 20.8106 59.781 20.8127C59.7823 20.8127 59.7836 20.8128 59.7849 20.8128C59.7863 20.8128 59.7849 20.8128 59.7849 20.8128C59.786 20.8128 59.7871 20.8127 59.7883 20.8127C61.2847 20.8121 62.7354 20.483 63.9903 19.9278V37.1539C63.9903 37.7197 64.4489 38.1782 65.0146 38.1782C65.5803 38.1782 66.0389 37.7197 66.0389 37.1539V18.7177C68.5589 16.8168 70.1913 13.7988 70.1913 10.4064ZM59.7849 2.04866C64.3934 2.04866 68.1426 5.79799 68.1426 10.4064C68.1426 15.0237 64.3828 18.764 59.7849 18.764C55.0863 18.764 51.2439 14.8531 51.4358 10.0678C51.6502 5.46515 55.4097 2.04866 59.7849 2.04866Z"
  />
<path
    d="M57.0422 14.1877C57.3889 14.7495 58.1702 14.8419 58.6382 14.3741L65.2636 7.7486C65.6636 7.34843 65.6636 6.69996 65.2636 6.29992C64.8635 5.90003 64.2149 5.90003 63.815 6.29992L58.1054 12.0097L55.8961 8.42971C55.5992 7.94828 54.968 7.799 54.4865 8.09591C54.0051 8.39311 53.8557 9.02423 54.1527 9.50553L57.0422 14.1877Z"
  />
<path
    d="M64.7508 41.259C64.1851 41.259 63.7265 41.7175 63.7265 42.2834V46.508C63.7265 48.5994 62.025 50.3008 59.9335 50.3008H5.84168C3.75014 50.3008 2.04866 48.5994 2.04866 46.508V14.8417C2.04866 12.7503 3.75014 11.0487 5.84168 11.0487H17.9804C18.5461 11.0487 19.0047 10.5902 19.0047 10.0243C19.0047 9.45849 18.5461 9 17.9804 9H5.84168C2.62064 9 0 11.6205 0 14.8417V46.5078C0 49.7289 2.62064 52.3494 5.84168 52.3494H59.9335C63.1545 52.3494 65.7751 49.7287 65.7751 46.5078V42.2832C65.7751 41.7175 65.3165 41.259 64.7508 41.259Z"
  />
<path
    d="M59.6102 27.6028V24.5747C59.6102 23.7065 58.9037 23 58.0353 23H47.5749C46.7065 23 46 23.7065 46 24.5747V27.6028C46 28.4711 46.7065 29.1777 47.5749 29.1777H58.0353C58.9037 29.1777 59.6102 28.4711 59.6102 27.6028ZM57.5615 27.129H48.0485V25.0487H57.5615V27.129Z"
  />
</svg>
