<svg viewBox="0 0 67 52" xmlns="http://www.w3.org/2000/svg">
<path
    d="M54.4249 39.3133H58.5963C59.1309 39.3133 59.5643 38.88 59.5643 38.3453V4.96798C59.5643 4.43327 59.1309 4 58.5963 4H6.96798C6.4334 4 6 4.43327 6 4.96798V38.3453C6 38.88 6.4334 39.3133 6.96798 39.3133H49.8948C50.4293 39.3133 50.8627 38.88 50.8627 38.3453C50.8627 37.8106 50.4293 37.3773 49.8948 37.3773H7.93596V5.93596H57.6283V37.3773H54.4249C53.8903 37.3773 53.4569 37.8106 53.4569 38.3453C53.4569 38.88 53.8903 39.3133 54.4249 39.3133Z"
  />
<path
    d="M65.1129 41.72H63.9952V3.57508C63.9952 1.60375 62.3908 0 60.4189 0H15.538C15.0035 0 14.5701 0.433269 14.5701 0.967982C14.5701 1.5027 15.0035 1.93596 15.538 1.93596H60.4189C61.3233 1.93596 62.0593 2.67124 62.0593 3.57508V41.72H4.02164V3.57508C4.02164 2.67124 4.75757 1.93596 5.66205 1.93596H11.0131C11.5476 1.93596 11.981 1.5027 11.981 0.967982C11.981 0.433269 11.5476 0 11.0131 0H5.66205C3.69008 0 2.08568 1.60375 2.08568 3.57508V41.72H0.967982C0.433398 41.72 0 42.1533 0 42.688V47.9035C0 50.1624 1.83775 52 4.0965 52H8.84736C9.38194 52 9.81534 51.5667 9.81534 51.032C9.81534 50.4973 9.38194 50.064 8.84736 50.064H4.0965C2.90524 50.064 1.93596 49.0948 1.93596 47.9035V43.656H25.8099L26.3296 45.3192C26.7986 46.8199 28.1701 47.8281 29.7423 47.8281H36.3383C37.9106 47.8281 39.282 46.8199 39.751 45.3192L40.2708 43.656H64.1449V47.9035C64.1449 49.0948 63.1757 50.064 61.9844 50.064H13.3775C12.8429 50.064 12.4095 50.4973 12.4095 51.032C12.4095 51.5667 12.8429 52 13.3775 52H61.9844C64.2432 52 66.0809 50.1624 66.0809 47.9035V42.688C66.0809 42.1533 65.6475 41.72 65.1129 41.72V41.72ZM37.9033 44.7417C37.6883 45.4299 37.0594 45.8922 36.3384 45.8922H29.7425C29.0215 45.8922 28.3926 45.4299 28.1776 44.7417L27.8383 43.656H38.2426L37.9033 44.7417Z"
  />
<path
    d="M23.8752 23.7586C24.3366 23.7586 24.7338 23.4329 24.8243 22.9804L25.9978 17.1134C26.0546 16.8291 25.981 16.5342 25.7972 16.3099C25.6133 16.0857 25.3386 15.9556 25.0486 15.9556H17.6171C17.0825 15.9556 16.6491 16.3888 16.6491 16.9236C16.6491 17.4583 17.0825 17.8915 17.6171 17.8915H23.8678L23.0816 21.8226H15.5554L14.2667 14.7934C14.1825 14.3336 13.782 14 13.3146 14H10.968C10.4334 14 10 14.4333 10 14.968C10 15.5027 10.4334 15.936 10.968 15.936H12.5081L13.7809 22.8786V26.9627C13.7809 27.4974 14.2143 27.9307 14.7489 27.9307H14.7942C14.7657 28.0379 14.7489 28.1501 14.7489 28.2664C14.7489 28.9864 15.3327 29.5702 16.0527 29.5702C16.6435 29.5702 17.1416 29.1772 17.3019 28.6385C17.34 28.516 17.3605 28.3858 17.3605 28.2508C17.3605 28.1402 17.3453 28.0333 17.3194 27.9307H19.4878C19.4829 27.95 19.4769 27.9691 19.4729 27.9889C19.4534 28.0785 19.4426 28.1711 19.4426 28.2665C19.4426 28.9866 20.0264 29.5703 20.7464 29.5703C21.3771 29.5703 21.9032 29.1223 22.024 28.5272C22.0432 28.4382 22.054 28.3458 22.054 28.2509C22.054 28.1403 22.0387 28.0334 22.0128 27.9308H22.3109C22.8455 27.9308 23.2789 27.4975 23.2789 26.9628C23.2789 26.4281 22.8455 25.9948 22.3109 25.9948H15.717V23.7588H23.8752V23.7586Z"
  />
<path
    d="M37.108 10.968C37.108 10.4333 36.6746 10 36.14 10H31.968C31.4334 10 31 10.4333 31 10.968V15.1401C31 15.6749 31.4334 16.1082 31.968 16.1082H36.14C36.6746 16.1082 37.108 15.6749 37.108 15.1401V10.968ZM35.172 14.1723H32.936V11.9362H35.172V14.1723Z"
  />
<path
    d="M40.968 16.9358H49.8335C50.3681 16.9358 50.8015 16.5026 50.8015 15.9679C50.8015 15.4332 50.3681 15 49.8335 15H40.968C40.4334 15 40 15.4332 40 15.9679C40 16.5026 40.4334 16.9358 40.968 16.9358V16.9358Z"
  />
<path
    d="M40.968 11.936H55.0486C55.5832 11.936 56.0166 11.5027 56.0166 10.968C56.0166 10.4333 55.5832 10 55.0486 10H40.968C40.4334 10 40 10.4333 40 10.968C40 11.5027 40.4334 11.936 40.968 11.936Z"
  />
<path
    d="M37.108 19.968C37.108 19.4333 36.6746 19 36.14 19H31.968C31.4334 19 31 19.4333 31 19.968V24.14C31 24.6747 31.4334 25.108 31.968 25.108H36.14C36.6746 25.108 37.108 24.6747 37.108 24.14V19.968ZM35.172 23.172H32.936V20.936H35.172V23.172Z"
  />
<path
    d="M40.968 24.9358H49.8335C50.3681 24.9358 50.8015 24.5026 50.8015 23.9679C50.8015 23.4332 50.3681 23 49.8335 23H40.968C40.4334 23 40 23.4332 40 23.9679C40 24.5026 40.4334 24.9358 40.968 24.9358V24.9358Z"
  />
<path
    d="M40.968 20.936H55.0486C55.5832 20.936 56.0166 20.5027 56.0166 19.968C56.0166 19.4333 55.5832 19 55.0486 19H40.968C40.4334 19 40 19.4333 40 19.968C40 20.5027 40.4334 20.936 40.968 20.936Z"
  />
<path
    d="M36.14 27H31.968C31.4334 27 31 27.4333 31 27.968V32.14C31 32.6747 31.4334 33.108 31.968 33.108H36.14C36.6746 33.108 37.108 32.6747 37.108 32.14V27.968C37.108 27.4334 36.6746 27 36.14 27ZM35.172 31.172H32.936V28.936H35.172V31.172Z"
  />
<path
    d="M40.968 31C40.4334 31 40 31.4333 40 31.968C40 32.5027 40.4334 32.936 40.968 32.936H49.8335C50.3681 32.936 50.8015 32.5027 50.8015 31.968C50.8015 31.4333 50.3681 31 49.8335 31H40.968Z"
  />
<path
    d="M56.0166 27.9679C56.0166 27.4332 55.5832 27 55.0486 27H40.968C40.4334 27 40 27.4332 40 27.9679C40 28.5026 40.4334 28.9358 40.968 28.9358H55.0486C55.5832 28.9358 56.0166 28.5026 56.0166 27.9679Z"
  />
</svg>
