<svg width="100" height="33" viewBox="0 0 100 33" fill="none" xmlns="http://www.w3.org/2000/svg">
    <g clip-path="url(#clip0)">
        <path d="M9.71905 17.4379C7.71195 19.987 3.73886 20.0543 1.49629 17.7706C-0.634157 15.6252 -0.372524 12.2053 1.54114 10.0786C2.46807 7.26041 6.54581 7.61175 8.69494 9.33105C11.1842 11.3382 11.7486 14.8553 9.71905 17.4379Z" fill="#FFDCDC"/>
        <path d="M13.1588 9.43585C11.1853 9.43585 10.3743 8.20617 10.2061 6.71112C9.57066 4.84231 10.4228 2.65581 12.5122 2.11011C13.0065 1.98555 13.5215 1.96642 14.0238 2.05398C14.526 2.14153 15.0042 2.3338 15.4272 2.6183C15.8502 2.90279 16.2087 3.27313 16.4792 3.70524C16.7497 4.13735 16.9262 4.62156 16.9973 5.12637C17.0631 5.66832 17.0128 6.21806 16.8497 6.73905C16.6865 7.26003 16.4144 7.74032 16.0513 8.14798C15.6882 8.55564 15.2424 8.88132 14.7437 9.10338C14.245 9.32543 13.7047 9.43877 13.1588 9.43585Z" fill="#FFDCDC"/>
        <path d="M19.6038 31.1232L19.7272 30.8914C18.9011 30.3644 18.0789 29.8299 17.2566 29.2992C16.5517 28.7488 15.9099 28.1221 15.3429 27.4304C14.573 26.5819 13.7993 25.7298 13.0256 24.8851C12.9583 24.8141 12.8724 24.7318 12.8649 24.6646C12.0994 23.8586 11.4684 22.9348 10.9961 21.9286C10.5014 21.1492 10.0545 20.3403 9.65801 19.5066C9.61689 19.4169 9.71033 19.26 9.74024 19.1329C9.90648 19.0951 10.0664 19.0334 10.2149 18.9497C10.704 18.5216 11.0605 17.9627 11.2428 17.3388C12.0314 15.3205 12.7079 13.276 12.6332 11.0671C12.6134 10.9488 12.5795 10.8334 12.5322 10.7232C12.4269 10.7791 12.33 10.8495 12.2444 10.9325C11.7212 11.624 11.1904 12.3117 10.6971 13.0256C9.96376 14.0381 9.45414 15.1949 9.20202 16.4194C9.08989 16.9987 9.07494 17.593 9.01888 18.1798C8.98541 18.1322 8.95543 18.0822 8.92917 18.0303C8.61521 17.2828 8.31247 16.5352 7.98729 15.7877C7.94241 15.7004 7.92905 15.6003 7.94948 15.5042C7.96991 15.4082 8.02288 15.3222 8.09942 15.2607C8.47583 14.908 8.81752 14.52 9.11979 14.102C9.93172 12.7658 10.5212 11.3066 10.8653 9.78135C10.9893 9.23408 11.0705 8.67799 11.1082 8.11811C11.1082 7.94618 10.9886 7.76304 10.9251 7.58363C10.7479 7.64949 10.5835 7.7456 10.4392 7.86769C10.0355 8.35358 9.65053 8.85816 9.28425 9.36274C8.53771 10.3041 8.00923 11.3994 7.73687 12.5696C7.63596 13.1377 7.5911 13.7171 7.51635 14.2927H7.47898L6.79499 11.5866L6.98935 11.8744C7.06611 11.7195 7.15484 11.5708 7.25472 11.4296C7.6995 10.8727 8.27135 10.3831 8.57784 9.75892C9.02872 8.79287 9.40362 7.79315 9.69912 6.76883C9.81371 6.28999 9.87389 5.79975 9.87853 5.30742C9.87853 5.18408 9.79256 5.057 9.74397 4.93366C9.64306 4.97477 9.50103 4.98972 9.4487 5.06447C8.71987 6.06989 7.95365 7.05289 7.29957 8.09942C7.01385 8.65956 6.7811 9.24517 6.60437 9.84863C6.49437 9.48953 6.51421 9.10318 6.66044 8.75724C7.27328 7.20666 7.68405 5.58367 7.88264 3.92824C7.99556 2.76188 8.04671 1.59037 8.03588 0.418613C8.01488 0.273465 7.97203 0.13233 7.9088 0C7.77425 0.0672772 7.59484 0.104653 7.50514 0.213044C6.74307 1.09526 6.19214 2.1396 5.89423 3.26668C5.49056 5.01589 5.66997 6.76509 6.00262 8.49935C6.15586 9.29546 6.32031 10.0878 6.48103 10.8914C5.68492 10.5887 4.98598 10.2822 4.26836 10.0579C3.0179 9.72072 1.70585 9.68104 0.437301 9.94207C0.277943 9.99572 0.129739 10.0781 0 10.185C0.0790064 10.3448 0.181006 10.4921 0.302747 10.6223C1.16555 11.3235 2.24089 11.7109 3.35264 11.7212C4.2354 11.7447 5.11685 11.6389 5.96898 11.4072C6.43244 11.2764 6.49224 11.3287 6.5969 11.781C6.72398 12.3304 6.85106 12.8798 6.99309 13.4255C7.094 13.8292 7.21734 14.2329 7.34068 14.6851C7.23229 14.6253 7.17249 14.5991 7.11643 14.5618C6.26594 13.9552 5.21942 13.6886 4.1824 13.8142C3.09849 13.9899 2.03326 14.2852 0.960568 14.5356C0.788239 14.5741 0.620388 14.6305 0.459727 14.7038C0.405612 14.7213 0.35844 14.7555 0.324982 14.8015C0.291524 14.8475 0.273502 14.9029 0.273502 14.9598C0.273502 15.0167 0.291524 15.0721 0.324982 15.1181C0.35844 15.1641 0.405612 15.1983 0.459727 15.2158C0.991374 15.485 1.54694 15.7039 2.11923 15.8699C2.81009 15.9918 3.50789 16.0705 4.20856 16.1054C5.36147 16.2165 6.5231 16.0165 7.57242 15.5261L8.84321 18.5535C7.45193 18.0275 5.9419 17.8981 4.48141 18.1798C3.36012 18.4227 2.23883 18.8152 1.14745 19.159C1.00916 19.2039 0.900766 19.3459 0.773687 19.4394C0.889553 19.5627 0.982994 19.7458 1.12502 19.8131C1.81119 20.1196 2.5212 20.3696 3.24799 20.5606C3.94186 20.6656 4.64308 20.7143 5.3448 20.7064C6.57039 20.7127 7.77986 20.427 8.87311 19.8729C9.02188 19.7984 9.16661 19.7161 9.30667 19.6262L11.7847 23.8161C11.411 23.6703 10.9736 23.4797 10.5326 23.3452C8.6638 22.7696 6.7165 22.7696 4.78042 22.9714C4.07027 23.0387 3.36759 23.1919 2.66492 23.319C2.36218 23.3751 2.29116 23.5283 2.48178 23.7152C3.08467 24.3571 3.80709 24.8751 4.60848 25.2401C5.96026 25.7899 7.40635 26.0705 8.86563 26.0662C10.1083 26.1389 11.3414 25.81 12.3827 25.128C12.461 25.0955 12.5462 25.0833 12.6305 25.0925C12.7148 25.1016 12.7954 25.1318 12.8649 25.1803C13.6759 26.0736 14.4571 26.9931 15.2869 27.9499L14.629 27.7331C13.7871 27.4311 12.9058 27.2523 12.0127 27.2024C10.329 27.1662 8.65822 27.5032 7.12016 28.1891C6.69781 28.3611 6.25677 28.4956 5.83069 28.6526C5.73218 28.6962 5.63721 28.7475 5.54663 28.8058C5.62138 28.9142 5.67371 29.0824 5.77088 29.1198C6.567 29.4039 7.3519 29.7963 8.17417 29.8972C9.95702 30.1177 11.7585 30.3569 13.5638 30.0131C14.487 29.8412 15.4139 29.6842 16.1615 29.0413C16.2182 28.9993 16.2782 28.9618 16.3409 28.9292C16.4755 29.0823 16.6231 29.2236 16.7819 29.3515C17.5967 29.9047 18.4115 30.4728 19.2413 30.9849L19.5627 31.183C19.5823 31.1678 19.5966 31.1469 19.6038 31.1232ZM9.51224 6.04747C9.13848 7.76677 8.76472 9.50477 7.37432 10.7756C7.91605 9.12831 8.63147 7.54336 9.5085 6.04747H9.51224ZM9.09363 5.92039C8.39469 7.52757 7.59858 9.3291 6.85106 11.1082C6.83237 8.97029 7.92749 7.322 9.08989 5.92039H9.09363ZM1.12876 10.1588C2.52505 9.96944 3.94655 10.1646 5.24014 10.7232L1.12876 10.2523V10.1588ZM0.669034 10.484L5.71108 11.097C4.51504 11.8146 1.47262 11.4035 0.669034 10.484ZM6.18576 7.89012C5.51673 5.27378 6.18576 1.8875 7.65091 0.538217C6.70529 2.88918 6.55952 5.39339 6.18576 7.89012ZM7.68081 1.27079C8.01719 2.18277 7.27341 6.73519 6.51467 8.14427C6.72024 5.83816 6.86974 3.52084 7.67333 1.27079H7.68081ZM6.26425 14.4459C6.55578 14.5805 6.82489 14.7561 7.10521 14.9131L7.06784 15.0439C5.15321 14.7861 3.22007 14.6923 1.28948 14.7636C2.92656 14.3113 4.55242 13.6573 6.26425 14.4459ZM1.13997 15.1934C1.76042 14.943 6.12596 15.0551 7.20987 15.3504C6.03252 16.0718 2.05943 15.9409 1.13997 15.1897V15.1934ZM8.09942 14.8197C8.81289 12.7067 9.71869 10.6636 10.8055 8.71613C10.3009 10.9101 9.75892 13.1041 8.09942 14.8047V14.8197ZM10.7158 7.98356L7.9088 14.0759C7.8191 11.5866 9.3291 9.81499 10.7158 7.9686V7.98356ZM1.15866 19.5702C3.48346 18.3517 7.19118 17.9144 8.90301 19.0506C8.77801 19.0495 8.65319 19.0407 8.52925 19.0245C7.22482 18.7853 5.93534 18.9759 4.6496 19.1702C3.68529 19.316 2.72099 19.458 1.75668 19.5889C1.56041 19.5914 1.36424 19.5789 1.16987 19.5515L1.15866 19.5702ZM2.0968 19.8094C4.40292 19.5291 6.68286 18.8937 9.05625 19.3235C8.05083 20.299 4.30574 20.9307 2.0968 19.8094ZM12.3379 11.8296C12.3491 11.9464 12.3491 12.0641 12.3379 12.1809C12.136 13.1788 11.9641 14.1917 11.7025 15.171C11.4347 16.0808 11.1051 16.9712 10.7158 17.8359C10.5061 18.1861 10.2551 18.5098 9.96823 18.8002C9.88974 18.9011 9.81873 19.0058 9.74397 19.1104C9.71781 18.9609 9.63558 18.7928 9.68043 18.6694C10.2785 17.0273 10.8852 15.389 11.5007 13.7544C11.7399 13.1078 11.9903 12.465 12.2482 11.8184L12.3379 11.8296ZM11.7174 12.2594C10.9512 14.2702 10.1888 16.2848 9.40011 18.3554C9.22071 15.9223 10.2523 14.0086 11.7174 12.2594ZM11.4969 24.1002L3.65913 23.547C5.13923 22.9901 9.69538 22.9378 11.4969 24.1002ZM10.3756 25.5952C8.18847 25.9623 5.94132 25.5915 3.98804 24.5412C3.68585 24.3467 3.40188 24.1253 3.1396 23.8797L3.18071 23.7974C6.18576 24.0267 9.19579 24.2584 12.2108 24.4926C12.2743 24.4926 12.3304 24.5898 12.4276 24.6758C11.8499 25.1737 11.1393 25.492 10.3831 25.5915L10.3756 25.5952ZM15.5522 28.4059C12.8013 28.5928 10.0467 28.4844 7.21734 28.4807C10.028 27.251 12.7827 27.109 15.5522 28.4059ZM15.3467 29.1945C14.0232 29.6833 12.6143 29.8982 11.2054 29.8262C10.6074 29.7851 10.0131 29.7216 9.41506 29.7178C8.35314 29.679 7.31135 29.4166 6.35769 28.9479C9.56083 28.6302 12.7752 29.0151 15.9783 28.6675C15.9783 28.7087 15.997 28.746 16.0045 28.7834C15.802 28.9498 15.5813 29.0928 15.3467 29.2095V29.1945Z" fill="white"/>
        <path d="M14.3679 7.63658C14.0652 8.4028 13.4858 8.71302 12.8355 8.45512C12.5273 8.34713 12.2738 8.1227 12.1291 7.82994C11.9845 7.53719 11.9603 7.19942 12.0618 6.88906C12.2973 6.27609 13.1831 5.83505 13.7736 6.05931C14.0519 6.20042 14.2672 6.44059 14.3772 6.73251C14.4872 7.02444 14.4839 7.34697 14.3679 7.63658ZM14.0764 7.52446C14.1543 7.30504 14.1511 7.06501 14.0675 6.84772C13.9839 6.63043 13.8253 6.45021 13.6204 6.33963C13.3634 6.28194 13.0945 6.31209 12.8567 6.42524C12.6189 6.5384 12.4258 6.72803 12.3085 6.96381C12.2653 7.08268 12.2466 7.20905 12.2534 7.33533C12.2603 7.46162 12.2927 7.58521 12.3485 7.69868C12.4044 7.81214 12.4826 7.91315 12.5785 7.99561C12.6744 8.07807 12.786 8.1403 12.9065 8.17854C13.3999 8.3729 13.8447 8.11874 14.0764 7.52446Z" fill="white"/>
        <path d="M4.21798 7.06117C4.3214 7.09155 4.41776 7.14215 4.50149 7.21004C4.58521 7.27792 4.65464 7.36174 4.70574 7.45664C4.75684 7.55155 4.78861 7.65565 4.79919 7.76291C4.80978 7.87018 4.79898 7.97848 4.76741 8.08154C4.7213 8.20793 4.65047 8.32387 4.55906 8.42258C4.46765 8.52129 4.35749 8.60081 4.23501 8.65648C4.11254 8.71215 3.98019 8.74286 3.84572 8.74683C3.71124 8.75079 3.57732 8.72792 3.45177 8.67956C3.26151 8.58829 3.11528 8.42522 3.04519 8.22618C2.97511 8.02714 2.98691 7.80842 3.07801 7.61808C3.11122 7.50327 3.16811 7.39668 3.24501 7.30519C3.32192 7.2137 3.41713 7.13933 3.52452 7.08686C3.63191 7.0344 3.74909 7.00501 3.86853 7.00059C3.98797 6.99616 4.10701 7.0168 4.21798 7.06117ZM4.10586 7.32281C4.02914 7.29098 3.94663 7.27549 3.86359 7.27731C3.78055 7.27914 3.6988 7.29824 3.62355 7.3334C3.54831 7.36857 3.48121 7.41902 3.42654 7.48155C3.37186 7.54407 3.33081 7.6173 3.30601 7.69657C3.24511 7.82889 3.23629 7.9793 3.28131 8.11783C3.32634 8.25637 3.42189 8.37285 3.54895 8.44409C3.73331 8.50483 3.93372 8.4944 4.11078 8.41486C4.28784 8.33533 4.42874 8.19243 4.50578 8.01427C4.52372 7.94334 4.5275 7.86958 4.51692 7.79719C4.50634 7.7248 4.4816 7.6552 4.44411 7.59238C4.40662 7.52956 4.35713 7.47473 4.29845 7.43104C4.23977 7.38735 4.17305 7.35566 4.10212 7.33776L4.10586 7.32281Z" fill="white"/>
        <path d="M12.0698 4.53069C12.2567 4.10087 12.5407 3.91398 12.8173 4.03733C12.9822 4.12438 13.1106 4.26757 13.1791 4.441C13.2476 4.61443 13.2519 4.80666 13.1911 4.98294C13.1066 5.12426 12.9722 5.22877 12.8144 5.27583C12.6567 5.32288 12.487 5.30907 12.3389 5.2371C12.2691 5.21583 12.2051 5.17888 12.1518 5.12908C12.0985 5.07929 12.0573 5.01796 12.0313 4.9498C12.0054 4.88163 11.9953 4.80843 12.002 4.73579C12.0087 4.66315 12.0318 4.593 12.0698 4.53069Z" fill="white"/>
        <path d="M3.73064 5.03556C3.80023 5.06369 3.86322 5.10595 3.91561 5.15969C3.96801 5.21343 4.00867 5.27747 4.03502 5.34774C4.06138 5.41802 4.07285 5.493 4.06871 5.56794C4.06456 5.64288 4.0449 5.71614 4.01097 5.78309C3.94932 5.92181 3.84005 6.03388 3.70294 6.09901C3.56582 6.16414 3.40991 6.17803 3.26344 6.13816C3.01302 6.03724 2.93079 5.7345 3.06161 5.40932C3.19243 5.08415 3.4578 4.92343 3.73064 5.03556Z" fill="white"/>
        <path d="M1 6.32901C1.13082 5.95524 1.34386 5.95524 1.50084 6.0599C1.65782 6.16455 1.68025 6.34022 1.76995 6.48599C1.60201 6.58131 1.41627 6.64111 1.22426 6.66165C1.12334 6.65044 1.04859 6.40376 1 6.32901Z" fill="white"/>
        <path d="M14.1395 4.87834C14.0685 4.62418 13.9638 4.44104 14.0124 4.37376C14.1468 4.22607 14.3031 4.1 14.4759 4C14.5528 4.18389 14.5958 4.38015 14.603 4.57933C14.603 4.68025 14.3712 4.73631 14.1395 4.87834Z" fill="white"/>
        <path d="M20.4138 16.4362C23.4711 16.8436 24.3569 18.3536 24.3569 19.9196C24.3569 22.1174 22.6152 23.6573 19.7186 23.6573C19.143 23.6573 17.9806 23.5975 16.3958 23.5975C15.4913 23.5975 14.527 23.6199 14 23.6573V23.2835C15.3119 23.2274 15.5661 23.0293 15.5661 21.624V12.0333C15.5661 10.6279 15.3119 10.4298 14 10.3738V10C14.5382 10.0374 15.495 10.0561 16.3584 10.0561C17.5769 10.0561 18.8103 10.0187 19.2738 10.0187C21.9798 10.0037 23.3627 11.2596 23.3627 13.0499C23.3627 14.4179 22.5891 15.7485 20.4287 16.4138L20.4138 16.4362ZM17.3601 12.0333V16.4138H18.6608C20.9333 16.4138 21.4939 14.9187 21.4939 13.248C21.4939 11.353 20.7202 10.3738 18.7842 10.3738C17.6143 10.3738 17.3601 10.7027 17.3601 12.0333ZM22.4246 19.8337C22.4246 17.8714 21.4341 16.7315 18.9822 16.7315H17.3601V21.6165C17.3601 22.9658 17.6143 23.22 18.8103 23.22C21.3407 23.22 22.4246 22.0202 22.4246 19.8337Z" fill="white"/>
        <path d="M34.7722 18.2551C34.7722 21.9628 32.8398 23.4878 30.388 23.4878C27.9361 23.4878 26 21.9479 26 18.2551C26 14.5623 27.9323 13 30.388 13C32.8436 13 34.7722 14.5399 34.7722 18.2551ZM27.8763 18.2551C27.8763 21.7086 28.9228 23.114 30.388 23.114C31.8531 23.114 32.8959 21.7199 32.8959 18.2551C32.8959 14.7903 31.8569 13.3962 30.388 13.3962C28.9191 13.3962 27.8763 14.7941 27.8763 18.2551Z" fill="white"/>
        <path d="M42.4586 14.2144V14.5881H39.5993V22.0634C39.5993 23.2781 40.0628 23.7042 40.8365 23.7042C41.6102 23.7042 42.1745 23.1473 42.5819 21.6373L42.9557 21.7344C42.6903 23.2295 42.0101 24.4031 40.4478 24.4031C39.5582 24.4031 39.0387 24.1863 38.6163 23.7602C38.052 23.1846 37.8688 22.4296 37.8688 21.0542V14.5993H36V14.2256H37.8688V11.2728C38.4576 11.2729 39.0428 11.1809 39.6031 11V14.2256L42.4586 14.2144Z" fill="white"/>
        <path d="M49.3988 13.7264C50.0118 14.3468 50.1688 15.0644 50.1688 16.4324V21.8034C50.1688 22.4275 50.322 22.7191 50.763 22.7191C51.0929 22.7013 51.4038 22.5599 51.6339 22.3229L51.8507 22.6555C51.372 23.1038 50.7423 23.3559 50.0865 23.3619C48.7372 23.3619 48.427 22.5509 48.427 21.6464C48.1313 22.1727 47.6993 22.6096 47.1765 22.9115C46.6537 23.2133 46.0593 23.3689 45.4556 23.3619C44.1624 23.3619 43 22.7116 43 21.2016C43 19.6916 44.1811 18.9927 46.1134 18.1816C47.4067 17.6471 48.427 17.3145 48.427 16.5408V15.3335C48.427 13.7114 47.6346 13.39 46.633 13.39C45.9714 13.39 45.1603 13.5208 44.7193 14.0777C44.9816 14.1429 45.214 14.2953 45.3784 14.5099C45.5427 14.7245 45.6292 14.9885 45.6238 15.2588C45.6295 15.4042 45.6038 15.5492 45.5484 15.6838C45.493 15.8184 45.4092 15.9395 45.3028 16.0388C45.1964 16.1381 45.0698 16.2133 44.9317 16.2593C44.7936 16.3053 44.6472 16.321 44.5025 16.3053C43.841 16.3053 43.456 15.8045 43.456 15.1055C43.456 14.5412 43.8298 14.0964 44.3605 13.7301C45.1754 13.2327 46.1159 12.9798 47.0703 13.0013C48.143 13.0013 48.954 13.2853 49.3988 13.7264ZM48.427 17.3182C48.2177 17.6322 47.7916 17.8265 46.5769 18.4395C45.7285 18.8469 44.7081 19.4038 44.7081 20.8951C44.7081 22.0538 45.3659 22.592 46.2555 22.592C47.0292 22.592 47.7804 22.1846 48.4345 21.1306L48.427 17.3182Z" fill="white"/>
        <path d="M61.5442 13.7251C62.0264 14.2521 62.2132 14.9398 62.2132 16.2629V21.4246C62.2132 22.501 62.6206 22.8113 63.6859 22.8113V23.2187C63.2448 23.2187 62.2132 23.1402 61.3648 23.1402C60.5164 23.1402 59.6119 23.2 59.2045 23.2187V22.8113C60.1314 22.8113 60.479 22.501 60.479 21.4246V15.8406C60.479 14.6408 60.3108 13.598 58.9129 13.598C57.2908 13.598 56.2069 15.1454 56.2069 17.1189V21.4246C56.2069 22.501 56.5545 22.8113 57.4889 22.8113V23.2187C57.0852 23.2187 56.1695 23.1402 55.3211 23.1402C54.4726 23.1402 53.4523 23.2 53 23.2187V22.8113C54.0652 22.8113 54.4689 22.501 54.4689 21.4246V15.3771C54.4689 14.2185 54.1213 13.669 53 13.669V13.2654C53.4037 13.3027 53.8111 13.3214 54.196 13.3214C54.8762 13.3405 55.555 13.2509 56.2069 13.0561V15.3323C56.8871 13.5943 58.1766 13 59.4997 13C60.479 13 61.1032 13.2654 61.5442 13.7251Z" fill="white"/>
        <path d="M67.2069 21.9882C67.2069 23.0647 67.6105 23.3749 68.6758 23.3749V23.7823C68.2347 23.7823 67.2256 23.7038 66.336 23.7038C65.4465 23.7038 64.441 23.7636 64 23.7823V23.3749C65.0652 23.3749 65.4689 23.0647 65.4689 21.9882V15.9408C65.4689 14.7821 65.1213 14.2327 64 14.2327V13.829C64.4037 13.8664 64.8111 13.8851 65.196 13.8851C65.8762 13.9041 66.555 13.8146 67.2069 13.6197V21.9882ZM67.4423 10.2334C67.4431 10.4783 67.3712 10.7178 67.2357 10.9218C67.1002 11.1257 66.9072 11.2848 66.6812 11.3791C66.4552 11.4733 66.2064 11.4983 65.9661 11.451C65.7259 11.4037 65.5051 11.2861 65.3317 11.1133C65.1583 10.9404 65.0401 10.72 64.9921 10.4799C64.9441 10.2398 64.9683 9.99086 65.0619 9.76458C65.1554 9.5383 65.314 9.34487 65.5175 9.20876C65.721 9.07265 65.9603 9 66.2052 9C66.5318 9.00291 66.8442 9.13368 67.0755 9.36425C67.3067 9.59483 67.4384 9.90686 67.4423 10.2334Z" fill="white"/>
        <path d="M78.7535 22.7358C79.1945 23.3375 79.5235 23.6702 80.099 23.7449V24.1523C79.8075 24.1523 79.1198 24.0738 78.533 24.0738C77.7219 24.0738 76.7987 24.1336 76.3951 24.1523V23.7449C76.7688 23.7449 76.9893 23.5954 76.9893 23.3712C76.981 23.2634 76.9407 23.1605 76.8735 23.0759L74.6571 19.8316C74.1861 19.1738 73.8834 19.0131 73.2069 18.9832V22.347C73.2069 23.4235 73.5545 23.7337 74.4777 23.7337V24.1523C74.074 24.1523 73.1471 24.0738 72.336 24.0738C71.4502 24.0738 70.441 24.1336 70 24.1523V23.7449C71.0652 23.7449 71.4689 23.4347 71.4689 22.3583V11.3211C71.4689 10.1624 71.1213 9.62418 70 9.62418V9.21678C70.3974 9.25674 70.7966 9.2767 71.196 9.27658C71.877 9.29601 72.5565 9.20256 73.2069 9V18.5945C73.8404 18.5441 74.4323 18.2588 74.8664 17.7946L76.2979 16.2996C76.7315 15.8473 76.9109 15.4997 76.9109 15.2344C76.9109 14.7634 76.2979 14.5728 75.4868 14.5728V14.199C76.1596 14.2364 77.109 14.2738 77.6659 14.2738C78.3087 14.2738 78.9591 14.2364 79.3478 14.199V14.5728C78.6758 14.6493 78.0563 14.9731 77.6098 15.481L75.2626 17.9516L78.7535 22.7358Z" fill="white"/>
        <path d="M86.4138 13.7263C87.0267 14.3467 87.1874 15.0644 87.1874 16.4323V21.8033C87.1874 22.4275 87.3407 22.719 87.7817 22.719C88.1115 22.7013 88.4225 22.5598 88.6526 22.3228L88.8694 22.6555C88.3906 23.1037 87.761 23.3558 87.1052 23.3619C85.7559 23.3619 85.442 22.5508 85.442 21.6463C85.1447 22.1754 84.7098 22.6142 84.1834 22.9162C83.657 23.2183 83.0587 23.3723 82.4519 23.3619C81.1624 23.3619 80 22.7115 80 21.2015C80 19.6915 81.1811 18.9926 83.1134 18.1815C84.4067 17.6471 85.4233 17.3144 85.4233 16.5407V15.3335C85.4233 13.7114 84.6309 13.3899 83.633 13.3899C82.9714 13.3899 82.1603 13.5207 81.7193 14.0776C81.9816 14.1428 82.214 14.2952 82.3784 14.5098C82.5427 14.7244 82.6292 14.9885 82.6238 15.2587C82.6295 15.4042 82.6038 15.5491 82.5484 15.6837C82.493 15.8183 82.4092 15.9394 82.3028 16.0387C82.1964 16.1381 82.0698 16.2133 81.9317 16.2593C81.7936 16.3053 81.6472 16.3209 81.5025 16.3053C80.841 16.3053 80.456 15.8044 80.456 15.1055C80.456 14.5411 80.8298 14.0963 81.3605 13.73C82.1742 13.2332 83.1134 12.9802 84.0665 13.0012C85.1617 13.0012 85.9727 13.2853 86.4138 13.7263ZM85.442 17.3182C85.2364 17.6321 84.8103 17.8265 83.5956 18.4394C82.7472 18.8468 81.7268 19.4037 81.7268 20.8951C81.7268 22.0537 82.3846 22.5919 83.2704 22.5919C84.0441 22.5919 84.7991 22.1845 85.4495 21.1305L85.442 17.3182Z" fill="white"/>
        <path d="M32.7526 30.3676V31.6346H32.4162V30.6778H29V27H29.3513V30.3639H31.7883V27H32.1396V30.3639L32.7526 30.3676Z" fill="white"/>
        <path d="M36.9901 29.6948C36.9901 30.3302 36.5416 30.6816 35.596 30.6816H34V27H35.5511C36.3622 27 36.8593 27.3252 36.8593 27.9381C36.8638 28.1366 36.798 28.3302 36.6735 28.4848C36.549 28.6394 36.3739 28.745 36.179 28.7828C36.2928 28.7875 36.4045 28.8151 36.5074 28.8639C36.6103 28.9126 36.7024 28.9816 36.7781 29.0667C36.8538 29.1518 36.9115 29.2513 36.948 29.3592C36.9844 29.4671 36.9987 29.5813 36.9901 29.6948ZM34.3738 28.6782H35.5549C36.1828 28.6782 36.5341 28.439 36.5341 27.9793C36.5341 27.5195 36.1828 27.2878 35.5549 27.2878H34.3738V28.6782ZM36.65 29.6948C36.65 29.1977 36.3472 28.9697 35.6558 28.9697H34.3738V30.4087H35.6109C36.2837 30.39 36.65 30.1695 36.65 29.6948Z" fill="white"/>
        <path d="M41.5096 28.9648H38.3476C38.3677 29.2728 38.4781 29.5681 38.6651 29.8137C38.852 30.0593 39.1073 30.2443 39.3988 30.3456C39.6904 30.4469 40.0054 30.46 40.3044 30.3833C40.6033 30.3065 40.8731 30.1433 41.0798 29.9141L41.2854 30.1459C41.1134 30.3426 40.8997 30.4984 40.6597 30.6018C40.4198 30.7053 40.1598 30.7538 39.8987 30.7439C39.6488 30.7565 39.3989 30.717 39.165 30.6279C38.9312 30.5388 38.7184 30.402 38.5402 30.2263C38.362 30.0505 38.2223 29.8397 38.1299 29.6071C38.0376 29.3744 37.9946 29.1252 38.0037 28.8751C37.9881 28.6347 38.0218 28.3938 38.103 28.167C38.1842 27.9403 38.3111 27.7326 38.4757 27.5568C38.6404 27.3811 38.8394 27.241 39.0603 27.1452C39.2813 27.0494 39.5196 27 39.7604 27C40.0013 27 40.2395 27.0494 40.4605 27.1452C40.6815 27.241 40.8805 27.3811 41.0451 27.5568C41.2098 27.7326 41.3366 27.9403 41.4178 28.167C41.499 28.3938 41.5328 28.6347 41.5171 28.8751C41.5171 28.8938 41.5096 28.9274 41.5096 28.9648ZM38.3551 28.6882H41.1732C41.1732 28.3145 41.0248 27.9561 40.7605 27.6918C40.4963 27.4276 40.1379 27.2791 39.7642 27.2791C39.3904 27.2791 39.032 27.4276 38.7678 27.6918C38.5035 27.9561 38.3551 28.3145 38.3551 28.6882Z" fill="white"/>
        <path d="M44.2256 27.3177H42.7866V30.6816H42.4352V27.3177H41V27H44.2256V27.3177Z" fill="white"/>
        <path d="M47.8518 29.493C47.8518 30.2742 47.3323 30.7002 46.3754 30.6928H45V27H45.3738V28.3269H46.4689C47.3659 28.3455 47.8518 28.7492 47.8518 29.493ZM47.5005 29.493C47.5005 28.895 47.1267 28.6221 46.3792 28.6072H45.3738V30.405H46.3792C47.1155 30.4423 47.5005 30.0985 47.5005 29.493ZM48.5283 27H48.8834V30.6778H48.5283V27Z" fill="white"/>
        <path d="M54.9864 29.6948C54.9864 30.3302 54.5341 30.6816 53.5922 30.6816H52V27H53.5511C54.3584 27 54.8593 27.3252 54.8593 27.9381C54.8629 28.1369 54.7963 28.3306 54.6712 28.4851C54.5461 28.6396 54.3705 28.745 54.1753 28.7828C54.2891 28.7875 54.4008 28.8151 54.5037 28.8639C54.6066 28.9126 54.6987 28.9816 54.7743 29.0667C54.85 29.1518 54.9078 29.2513 54.9442 29.3592C54.9807 29.4671 54.995 29.5813 54.9864 29.6948ZM52.3439 28.6819H53.5287C54.1566 28.6819 54.5079 28.4427 54.5079 27.983C54.5079 27.5233 54.1566 27.2915 53.5287 27.2915H52.3439V28.6819ZM54.635 29.6948C54.635 29.1977 54.3323 28.9697 53.6408 28.9697H52.3439V30.4087H53.5848C54.2687 30.39 54.635 30.1695 54.635 29.6948Z" fill="white"/>
        <path d="M63.0852 26V30.9299H62.7115V26.3214H59.3738V30.9299H59V26H63.0852Z" fill="white"/>
        <path d="M67.5059 28.9648H64.3476C64.3677 29.2728 64.4781 29.5681 64.6651 29.8137C64.852 30.0593 65.1073 30.2443 65.3988 30.3456C65.6904 30.4469 66.0054 30.46 66.3044 30.3833C66.6033 30.3065 66.8731 30.1433 67.0798 29.9141L67.2854 30.1459C67.1134 30.3426 66.8996 30.4984 66.6597 30.6018C66.4198 30.7053 66.1598 30.7538 65.8987 30.7439C65.6487 30.7565 65.3989 30.717 65.165 30.6279C64.9312 30.5388 64.7184 30.402 64.5402 30.2263C64.362 30.0505 64.2223 29.8397 64.1299 29.6071C64.0376 29.3744 63.9946 29.1252 64.0037 28.8751C63.9881 28.6347 64.0218 28.3938 64.103 28.167C64.1842 27.9403 64.3111 27.7326 64.4757 27.5568C64.6404 27.3811 64.8393 27.241 65.0603 27.1452C65.2813 27.0494 65.5196 27 65.7604 27C66.0013 27 66.2395 27.0494 66.4605 27.1452C66.6815 27.241 66.8805 27.3811 67.0451 27.5568C67.2098 27.7326 67.3366 27.9403 67.4178 28.167C67.499 28.3938 67.5328 28.6347 67.5171 28.8751C67.5133 28.8938 67.5059 28.9274 67.5059 28.9648ZM64.3476 28.6882H67.1658C67.1658 28.3145 67.0173 27.9561 66.753 27.6918C66.4888 27.4276 66.1304 27.2791 65.7567 27.2791C65.383 27.2791 65.0246 27.4276 64.7603 27.6918C64.4961 27.9561 64.3476 28.3145 64.3476 28.6882Z" fill="white"/>
        <path d="M71.2405 27.3177H69.8015V30.6816H69.4502V27.3177H68V27H71.2256L71.2405 27.3177Z" fill="white"/>
        <path d="M74.5132 28.9586H71.3512C71.3712 29.2666 71.4817 29.5619 71.6686 29.8075C71.8556 30.0531 72.1109 30.2381 72.4024 30.3394C72.694 30.4408 73.009 30.4539 73.308 30.3771C73.6069 30.3004 73.8767 30.1372 74.0834 29.908L74.2852 30.1397C74.1134 30.3366 73.8997 30.4926 73.6598 30.5961C73.4198 30.6996 73.1597 30.748 72.8986 30.7377C72.6486 30.7503 72.3988 30.7108 72.1649 30.6217C71.931 30.5326 71.7182 30.3958 71.54 30.2201C71.3618 30.0444 71.2221 29.8335 71.1298 29.6009C71.0374 29.3683 70.9945 29.119 71.0036 28.8689C70.9882 28.6287 71.0224 28.3878 71.104 28.1613C71.1856 27.9348 71.3129 27.7275 71.478 27.5523C71.6431 27.377 71.8424 27.2376 72.0636 27.1426C72.2849 27.0476 72.5233 26.9991 72.764 27.0001C73.0051 26.9974 73.2441 27.0448 73.4659 27.1392C73.6878 27.2337 73.8876 27.3731 74.0527 27.5488C74.2178 27.7245 74.3447 27.9325 74.4252 28.1597C74.5058 28.387 74.5383 28.6285 74.5207 28.8689C74.5207 28.8876 74.5132 28.9212 74.5132 28.9586ZM71.3587 28.682H74.1731C74.1545 28.3214 73.9981 27.9816 73.7363 27.7329C73.4744 27.4842 73.127 27.3455 72.7659 27.3455C72.4047 27.3455 72.0574 27.4842 71.7955 27.7329C71.5336 27.9816 71.3773 28.3214 71.3587 28.682Z" fill="white"/>
        <path d="M79.6666 28.8659C79.679 29.1105 79.6408 29.355 79.5544 29.5841C79.4679 29.8132 79.3351 30.022 79.1643 30.1975C78.9934 30.3729 78.7882 30.5112 78.5614 30.6036C78.3346 30.696 78.0912 30.7407 77.8464 30.7347C77.5416 30.7439 77.2402 30.668 76.9761 30.5155C76.712 30.363 76.4957 30.1399 76.3513 29.8713V32.0765H76V27.027H76.3364V27.8941C76.4763 27.6196 76.6908 27.3902 76.9553 27.2322C77.2197 27.0741 77.5234 26.994 77.8314 27.0008C78.077 26.9933 78.3215 27.0367 78.5495 27.1282C78.7775 27.2197 78.9842 27.3573 79.1565 27.5324C79.3288 27.7075 79.4631 27.9164 79.5509 28.1459C79.6387 28.3753 79.6781 28.6205 79.6666 28.8659ZM79.3115 28.8659C79.3005 28.5728 79.2036 28.2895 79.0328 28.0511C78.862 27.8127 78.6248 27.6299 78.3508 27.5253C78.0769 27.4207 77.7782 27.3989 77.492 27.4628C77.2057 27.5267 76.9446 27.6733 76.7411 27.8844C76.5376 28.0956 76.4007 28.3619 76.3474 28.6503C76.2941 28.9387 76.3268 29.2364 76.4414 29.5063C76.556 29.7762 76.7475 30.0065 76.992 30.1684C77.2365 30.3304 77.5232 30.4168 77.8165 30.417C78.0188 30.4215 78.2199 30.384 78.4071 30.3069C78.5942 30.2298 78.7634 30.1147 78.9038 29.969C79.0443 29.8233 79.1531 29.65 79.2232 29.4601C79.2934 29.2703 79.3235 29.068 79.3115 28.8659Z" fill="white"/>
        <path d="M83.7189 28.6591C83.7322 28.9027 83.6943 29.1463 83.6079 29.3744C83.5214 29.6024 83.3881 29.8099 83.2167 29.9834C83.0453 30.1569 82.8395 30.2927 82.6125 30.382C82.3856 30.4712 82.1424 30.512 81.8987 30.5018C80.6765 30.5018 80 29.5524 80 28.1022C80 26.4315 80.6055 25.7064 81.8427 25.4111L83.4797 25L83.5358 25.3326L81.9847 25.7064C80.8634 25.968 80.3663 26.5436 80.3439 27.949C80.4615 27.6187 80.6816 27.3347 80.9721 27.1383C81.2626 26.942 81.6082 26.8436 81.9585 26.8576C82.1954 26.8494 82.4314 26.8907 82.6515 26.9789C82.8715 27.0671 83.0707 27.2002 83.2364 27.3698C83.4021 27.5393 83.5306 27.7415 83.6136 27.9636C83.6967 28.1856 83.7326 28.4225 83.7189 28.6591ZM83.3452 28.6591C83.3551 28.4627 83.3251 28.2664 83.2568 28.082C83.1885 27.8976 83.0835 27.729 82.948 27.5864C82.8125 27.4439 82.6495 27.3304 82.4688 27.2529C82.2881 27.1753 82.0935 27.1353 81.8968 27.1353C81.7002 27.1353 81.5056 27.1753 81.3249 27.2529C81.1442 27.3304 80.9812 27.4439 80.8457 27.5864C80.7102 27.729 80.6052 27.8976 80.5369 28.082C80.4686 28.2664 80.4385 28.4627 80.4485 28.6591C80.4385 28.8555 80.4686 29.0519 80.5369 29.2363C80.6052 29.4207 80.7102 29.5893 80.8457 29.7318C80.9812 29.8743 81.1442 29.9878 81.3249 30.0654C81.5056 30.1429 81.7002 30.1829 81.8968 30.1829C82.0935 30.1829 82.2881 30.1429 82.4688 30.0654C82.6495 29.9878 82.8125 29.8743 82.948 29.7318C83.0835 29.5893 83.1885 29.4207 83.2568 29.2363C83.3251 29.0519 83.3551 28.8555 83.3452 28.6591Z" fill="white"/>
        <path d="M87.8871 27L85.9996 31.1899C85.7044 31.8664 85.3381 32.0832 84.8522 32.0832C84.6951 32.0876 84.5387 32.0604 84.3923 32.0033C84.246 31.9461 84.1125 31.8602 84 31.7505L84.1757 31.4851C84.2622 31.5795 84.3682 31.6541 84.4862 31.7038C84.6043 31.7534 84.7316 31.777 84.8597 31.7729C85.196 31.7729 85.4427 31.6197 85.6707 31.1189L85.8651 30.6741L84.213 27.0112H84.5868L86.0594 30.3003L87.5321 27.0112L87.8871 27Z" fill="white"/>
        <path d="M92.6554 28.8656C92.6683 29.11 92.6306 29.3544 92.5446 29.5835C92.4586 29.8126 92.3262 30.0215 92.1556 30.197C91.985 30.3725 91.78 30.5108 91.5534 30.6033C91.3268 30.6958 91.0836 30.7404 90.8389 30.7344C90.5343 30.7424 90.2335 30.6659 89.9696 30.5135C89.7058 30.3612 89.4892 30.1388 89.3439 29.871V32.0762H89V27.0267H89.3401V27.8938C89.48 27.6193 89.6945 27.3899 89.959 27.2319C90.2235 27.0738 90.5272 26.9937 90.8352 27.0005C91.0797 26.9946 91.3227 27.0391 91.5492 27.1313C91.7757 27.2235 91.9808 27.3615 92.1516 27.5365C92.3224 27.7115 92.4553 27.9199 92.542 28.1485C92.6287 28.3772 92.6673 28.6213 92.6554 28.8656ZM92.304 28.8656C92.2931 28.5725 92.1961 28.2892 92.0253 28.0508C91.8545 27.8124 91.6173 27.6296 91.3434 27.525C91.0694 27.4204 90.7707 27.3986 90.4845 27.4625C90.1983 27.5264 89.9371 27.673 89.7336 27.8841C89.5301 28.0953 89.3932 28.3616 89.3399 28.65C89.2866 28.9384 89.3193 29.2361 89.4339 29.506C89.5485 29.7759 89.74 30.0062 89.9845 30.1681C90.229 30.3301 90.5157 30.4165 90.809 30.4167C91.0114 30.4212 91.2125 30.3837 91.3996 30.3066C91.5868 30.2295 91.7559 30.1144 91.8964 29.9687C92.0368 29.823 92.1456 29.6497 92.2157 29.4598C92.2859 29.27 92.316 29.0677 92.304 28.8656Z" fill="white"/>
        <path d="M96.5154 27.3177H94.3513V30.6816H94V27H96.5154V27.3177Z" fill="white"/>
        <path d="M99.5132 28.9586H96.3512C96.3712 29.2666 96.4817 29.5619 96.6686 29.8075C96.8556 30.0531 97.1109 30.2381 97.4024 30.3395C97.694 30.4408 98.009 30.4539 98.308 30.3771C98.6069 30.3004 98.8767 30.1372 99.0834 29.908L99.289 30.1397C99.1163 30.3365 98.9018 30.4923 98.6613 30.5958C98.4208 30.6992 98.1602 30.7477 97.8986 30.7377C97.6486 30.7503 97.3988 30.7108 97.1649 30.6217C96.931 30.5326 96.7182 30.3958 96.54 30.2201C96.3618 30.0444 96.2221 29.8335 96.1298 29.6009C96.0374 29.3683 95.9945 29.119 96.0036 28.8689C95.9882 28.6283 96.0225 28.3872 96.1043 28.1604C96.1862 27.9337 96.3138 27.7262 96.4793 27.5509C96.6447 27.3756 96.8445 27.2362 97.0662 27.1415C97.2879 27.0467 97.5267 26.9986 97.7677 27.0001C98.0087 26.9974 98.2475 27.0447 98.4692 27.1392C98.6908 27.2337 98.8904 27.3732 99.0553 27.549C99.2201 27.7247 99.3466 27.9328 99.4267 28.16C99.5068 28.3873 99.5388 28.6287 99.5207 28.8689C99.5207 28.8876 99.5132 28.9213 99.5132 28.9586ZM96.3587 28.682H99.1731C99.1545 28.3214 98.9981 27.9816 98.7363 27.7329C98.4744 27.4842 98.127 27.3455 97.7659 27.3455C97.4047 27.3455 97.0573 27.4842 96.7955 27.7329C96.5336 27.9816 96.3772 28.3214 96.3587 28.682Z" fill="white"/>
    </g>
    <defs>
        <clipPath id="clip0">
            <rect width="100" height="32.2781" fill="white"/>
        </clipPath>
    </defs>
</svg>
